<?xml version="1.0" encoding="UTF-8"?>
<svg version="1.1" xmlns="http://www.w3.org/2000/svg" width="2048" height="2048">
<path d="M0 0 C675.84 0 1351.68 0 2048 0 C2048 675.84 2048 1351.68 2048 2048 C1372.16 2048 696.32 2048 0 2048 C0 1372.16 0 696.32 0 0 Z " fill="#0056D2" transform="translate(0,0)"/>
<path d="M0 0 C1.08667969 0.38542969 2.17335938 0.77085937 3.29296875 1.16796875 C16.58766635 6.27115081 26.75244634 14.45342487 35 26 C36.98 17.42 38.96 8.84 41 0 C59.15 0 77.3 0 96 0 C96 75.57 96 151.14 96 229 C77.85 229 59.7 229 41 229 C39.02 222.565 39.02 222.565 37 216 C36.01060688 212.99648518 35.01521535 209.99488527 34 207 C33.61070312 207.42410156 33.22140625 207.84820313 32.8203125 208.28515625 C14.80160058 227.17574133 -9.35065255 233.46607554 -34.61206055 234.38769531 C-65.56769474 234.97214227 -93.57004217 220.67279639 -115.48876953 199.56640625 C-137.7573428 177.46999338 -149.02656658 146.75051624 -149.25 115.625 C-149.00754059 81.79517772 -136.35894576 53.27085656 -113 29 C-112.36835937 28.29359375 -111.73671875 27.5871875 -111.0859375 26.859375 C-84.9514272 -1.46260532 -36.18579459 -13.56415011 0 0 Z " fill="#FEFEFE" transform="translate(1781,911)"/>
<path d="M0 0 C0.66451172 0.17660156 1.32902344 0.35320313 2.01367188 0.53515625 C21.69329656 5.8861116 38.28919533 17.15308487 53 31 C53.99773437 31.88365234 53.99773437 31.88365234 55.015625 32.78515625 C75.43512797 51.6690462 86.8227176 81.60283887 88.35546875 108.91015625 C89.27824827 139.81372421 78.64763629 169.93497867 58 193 C57.50661133 193.55381348 57.01322266 194.10762695 56.50488281 194.67822266 C35.18052128 218.1895235 4.64210987 232.25191225 -26.95214844 234.18017578 C-62.45352941 235.73901829 -93.64775243 224.43357017 -120.125 200.6875 C-140.81247044 181.52500314 -156.09294033 153.78611204 -157.30471802 125.25836182 C-158.02539703 103.78319121 -156.19385722 84.68987126 -147 65 C-146.5671167 64.0704248 -146.5671167 64.0704248 -146.12548828 63.12207031 C-132.13257729 33.74376827 -105.8867137 11.97211133 -75.4375 1.0625 C-51.18240059 -6.18319707 -24.42263721 -6.81037529 0 0 Z " fill="#FDFEFE" transform="translate(560,911)"/>
<path d="M0 0 C0.7729541 0.27376465 1.5459082 0.5475293 2.34228516 0.82958984 C32.24630709 11.78746879 55.6153118 32.85353453 69.375 61.5625 C72.75516382 68.85924313 75.044479 76.19727761 77 84 C77.51433594 85.62035156 77.51433594 85.62035156 78.0390625 87.2734375 C80.41933256 96.5042409 80.15459473 105.96225314 80.125 115.4375 C80.12886719 116.70271484 80.13273437 117.96792969 80.13671875 119.27148438 C80.13478516 121.08422852 80.13478516 121.08422852 80.1328125 122.93359375 C80.13168457 124.02728271 80.13055664 125.12097168 80.12939453 126.24780273 C80 129 80 129 79 132 C21.25 132 -36.5 132 -96 132 C-89.09970682 150.40078182 -82.46166273 162.43186113 -65.1875 171.3125 C-64.56037109 171.63822998 -63.93324219 171.96395996 -63.28710938 172.29956055 C-53.53276121 177.03988773 -43.50942468 178.54447933 -32.75 178.4375 C-31.66098389 178.42920166 -30.57196777 178.42090332 -29.44995117 178.41235352 C-10.86088231 178.02562602 6.34093216 172.01502534 20 159 C21.03362802 157.69256323 22.04565328 156.36638213 23 155 C27.43904139 156.44167032 30.5031322 158.88772222 33.9375 161.9375 C38.59666648 165.9791138 43.32146288 169.89709915 48.1875 173.6875 C48.76830322 174.1402832 49.34910645 174.59306641 49.94750977 175.05957031 C51.08540694 175.94622674 52.22350401 176.83262671 53.36181641 177.71875 C57.27035797 180.77568385 61.13321698 183.89053623 65 187 C46.78443854 213.54267527 18.42800545 226.96544548 -12.41796875 233.14453125 C-43.37095099 238.49738442 -77.590572 230.43382998 -103.3671875 212.7421875 C-131.40055517 192.26998261 -147.50460463 165.96916227 -154 132 C-154.17200928 131.23002686 -154.34401855 130.46005371 -154.52124023 129.66674805 C-159.67065691 100.98389319 -150.98177832 68.95599896 -135 45 C-132.16495051 41.17151168 -129.14959044 37.57114174 -126 34 C-125.50113281 33.36964844 -125.00226563 32.73929688 -124.48828125 32.08984375 C-109.06986895 12.69533658 -81.83182951 -0.10969185 -57.7734375 -3.45703125 C-39.19126975 -5.51378418 -17.77799079 -6.32547073 0 0 Z " fill="#FDFEFE" transform="translate(1404,911)"/>
<path d="M0 0 C19.47 0 38.94 0 59 0 C59.029729 6.32841064 59.029729 6.32841064 59.06005859 12.78466797 C59.12700887 26.73457527 59.20454961 40.68440892 59.28752708 54.63422966 C59.33757111 63.09077027 59.38401473 71.54730159 59.421875 80.00390625 C59.45489727 87.37781219 59.49478446 94.75164421 59.54279006 102.12546837 C59.56795367 106.02700017 59.58976441 109.92848357 59.60334396 113.83007431 C59.61625695 117.50890922 59.63840894 121.18757729 59.66738319 124.86631966 C59.68065237 126.84676507 59.68436252 128.82726746 59.68769836 130.80775452 C59.80785755 143.72559857 61.61396323 158.22191747 71 168 C82.59148573 178.07584027 94.96023847 180.03328351 109.80859375 179.18017578 C121.04159379 178.25660693 131.57187742 174.02072543 139.375 165.75 C145.42556078 158.36311905 148.62146412 150.16057739 151 141 C151.17366057 140.4112698 151.34732115 139.8225396 151.52624416 139.21596909 C152.09854851 136.53904433 152.14066353 134.05648963 152.15821838 131.31793213 C152.1680072 130.15969437 152.17779602 129.0014566 152.18788147 127.80812073 C152.19363693 126.54145065 152.1993924 125.27478058 152.20532227 123.96972656 C152.21490478 122.619397 152.22491508 121.26907042 152.23532104 119.91874695 C152.26233572 116.25589655 152.28336387 112.59303331 152.30332303 108.93013859 C152.3252038 105.10108671 152.35258226 101.27207426 152.37937927 97.4430542 C152.42927788 90.19356048 152.47422721 82.94404485 152.51740164 75.69450831 C152.56679822 67.44061673 152.62170737 59.18676471 152.67708123 50.9329114 C152.79085781 33.95530943 152.89697854 16.97767115 153 0 C172.47 0 191.94 0 212 0 C212 75.9 212 151.8 212 230 C192.53 230 173.06 230 153 230 C152.67 221.75 152.34 213.5 152 205 C150.329375 207.2275 150.329375 207.2275 148.625 209.5 C137.0267932 223.87609899 121.64088242 230.43347377 104 234 C103.06929687 234.19335938 102.13859375 234.38671875 101.1796875 234.5859375 C78.78098935 237.50272129 54.81481215 233.91763222 36 221 C15.10473039 204.49243018 5.26900307 183.7061552 1 158 C0.82628152 157.07646414 0.65256304 156.15292828 0.47358036 155.20140648 C-0.0121744 151.917701 -0.12299689 148.82623749 -0.12025452 145.50796509 C-0.12162918 144.22076569 -0.12300385 142.93356628 -0.12442017 141.60736084 C-0.1208817 140.19348121 -0.1172469 138.77960182 -0.11352539 137.36572266 C-0.11324312 135.86731976 -0.11340203 134.36891673 -0.1139679 132.87051392 C-0.11425432 128.8131352 -0.10838253 124.75578616 -0.10139394 120.69841433 C-0.09513472 116.45432976 -0.09455457 112.21024448 -0.09336853 107.96615601 C-0.09026279 99.93400789 -0.0820596 91.90187342 -0.07201904 83.86973131 C-0.0608344 74.72345609 -0.05534153 65.57718021 -0.05032361 56.43089986 C-0.03987636 37.62059061 -0.02154028 18.81030005 0 0 Z " fill="#FDFEFE" transform="translate(671,910)"/>
<path d="M0 0 C2.38076389 0.00851315 4.75911912 -0.02038248 7.13964844 -0.05200195 C34.4998741 -0.17620199 60.85362881 10.91391023 80.70214844 29.69604492 C85.8987477 35.05444307 89.94371713 41.21934857 94.01464844 47.44604492 C91.29470846 50.68612035 87.73939978 52.31280035 84.03027344 54.17651367 C82.99129913 54.70768547 82.99129913 54.70768547 81.93133545 55.24958801 C79.7118436 56.38304247 77.48846304 57.50859897 75.26464844 58.63354492 C73.09307164 59.73778177 70.92236081 60.84369773 68.7520752 61.95046997 C67.31472123 62.68338723 65.87681518 63.41522282 64.43835449 64.14596558 C58.79146653 67.02291365 53.19980509 69.99643216 47.64630127 73.04985046 C43.23108934 75.44604492 43.23108934 75.44604492 41.01464844 75.44604492 C39.93819551 73.96405848 38.92894669 72.43302867 37.95214844 70.88354492 C32.14971835 62.4479792 24.3039439 56.41256252 14.23828125 53.84594727 C9.46468679 52.98745498 4.66676427 52.88866726 -0.17285156 52.82104492 C-1.18226807 52.79792236 -2.19168457 52.7747998 -3.23168945 52.75097656 C-10.35948285 52.8250361 -16.10531698 54.28226585 -21.98535156 58.44604492 C-24.80511368 61.67182766 -25.39610568 63.58709122 -25.36035156 67.88354492 C-25.36808594 68.81038086 -25.37582031 69.7372168 -25.38378906 70.69213867 C-24.79482618 74.76291154 -23.24917104 77.35857235 -20.13769531 80.03588867 C-9.24383141 86.6644302 3.14519719 89.83199828 15.45214844 92.75854492 C33.9585852 97.19302987 52.45881032 102.92439911 69.01464844 112.44604492 C69.87574219 112.93459961 70.73683594 113.4231543 71.62402344 113.92651367 C85.26450275 122.32246387 93.93946231 135.06832028 98.55175781 150.20922852 C99.59645989 155.2575199 99.1994319 160.56179228 99.20214844 165.69604492 C99.21439453 166.89874023 99.22664063 168.10143555 99.23925781 169.34057617 C99.26747638 186.47865292 93.1511357 201.14837476 81.32714844 213.57104492 C68.16015715 226.22935601 50.75853116 233.09252219 33.01464844 236.44604492 C32.07935303 236.62337158 31.14405762 236.80069824 30.18041992 236.98339844 C21.58951435 238.46477092 13.15625184 238.80587732 4.45214844 238.75854492 C3.75354706 238.75672211 3.05494568 238.75489929 2.33517456 238.75302124 C-9.29864736 238.70211425 -20.61162501 238.03179256 -31.98535156 235.44604492 C-32.71705566 235.27975586 -33.44875977 235.1134668 -34.20263672 234.94213867 C-49.04036329 231.39919269 -63.0126901 224.96696683 -74.98535156 215.44604492 C-75.80261719 214.8040918 -76.61988281 214.16213867 -77.46191406 213.50073242 C-86.07217515 206.2766434 -93.44369757 196.77064097 -97.98535156 186.44604492 C-97.98535156 185.45604492 -97.98535156 184.46604492 -97.98535156 183.44604492 C-97.07470947 182.9781958 -96.16406738 182.51034668 -95.22583008 182.02832031 C-91.7664521 180.25071289 -88.30790541 178.47149236 -84.84945679 176.69207764 C-82.55851164 175.51402655 -80.26670628 174.33766113 -77.97485352 173.16137695 C-68.51776211 168.30388728 -68.51776211 168.30388728 -59.14941406 163.27807617 C-58.36751709 162.85067139 -57.58562012 162.4232666 -56.7800293 161.98291016 C-55.41687886 161.23129007 -54.0591588 160.46969876 -52.70825195 159.69628906 C-50.31649893 158.37909652 -48.49838618 157.44515424 -45.73535156 157.44995117 C-43.26932407 158.85360521 -42.57710523 160.49229522 -41.29785156 163.00854492 C-34.69022984 174.55952455 -23.59753486 180.84460978 -10.98535156 184.32104492 C-5.21182123 185.50088365 0.45494076 185.72084733 6.32714844 185.75854492 C7.58108398 185.76700439 7.58108398 185.76700439 8.86035156 185.77563477 C17.23060119 185.67741585 24.86772315 183.97462661 32.01464844 179.44604492 C35.6354373 175.59165678 36.39023461 171.76491335 36.28417969 166.50073242 C35.74492577 162.38989821 33.61748058 159.8168882 30.53027344 157.17651367 C20.18973732 149.9701666 7.04106469 147.09168462 -4.98535156 144.07104492 C-28.06082133 138.26272535 -51.29145895 131.83546157 -69.98535156 116.44604492 C-70.62730469 115.92913086 -71.26925781 115.4122168 -71.93066406 114.87963867 C-80.21227164 107.47075655 -85.56478643 96.12853897 -87.98535156 85.44604492 C-88.15518555 84.82971191 -88.32501953 84.21337891 -88.5 83.57836914 C-91.93939013 68.46788957 -88.60511551 50.14125862 -80.74316406 36.96557617 C-77.55287575 32.39282959 -73.91237385 28.39286732 -69.98535156 24.44604492 C-69.33179688 23.75768555 -68.67824219 23.06932617 -68.00488281 22.36010742 C-57.66568552 12.24089305 -43.83480774 6.72078853 -29.98535156 3.44604492 C-28.96836182 3.18218994 -27.95137207 2.91833496 -26.90356445 2.64648438 C-17.85601151 0.45320105 -9.27652018 -0.05035391 0 0 Z " fill="#FDFEFE" transform="translate(1135.9853515625,906.553955078125)"/>
<path d="M0 0 C2.15478179 -0.00963569 4.30857855 -0.04070065 6.46313477 -0.07226562 C19.36700655 -0.1723508 31.50869612 1.76517841 43.62133789 6.42773438 C44.81243164 6.87838257 44.81243164 6.87838257 46.02758789 7.33813477 C62.48253965 13.74442458 76.30197901 23.10343703 89.12133789 35.24023438 C89.84450195 35.92214844 90.56766602 36.6040625 91.31274414 37.30664062 C100.69126566 46.40042525 100.69126566 46.40042525 103.12133789 51.24023438 C102.87915039 53.22607422 102.87915039 53.22607422 102.12133789 55.24023438 C99.61903246 56.87576816 97.20650563 58.25431003 94.55883789 59.61523438 C92.92711584 60.48610199 91.29699392 61.35997226 89.66821289 62.23632812 C88.78327148 62.71054199 87.89833008 63.18475586 86.98657227 63.67333984 C81.69780549 66.56557784 76.50799299 69.62824896 71.30883789 72.67773438 C70.27750732 73.28085449 69.24617676 73.88397461 68.18359375 74.50537109 C62.79263633 77.64450271 62.79263633 77.64450271 57.48974609 80.92797852 C55.12133789 82.24023438 55.12133789 82.24023438 52.12133789 82.24023438 C50.57836914 80.73632812 50.57836914 80.73632812 48.93383789 78.67773438 C41.4794391 69.89329763 33.56472076 64.96907799 23.12133789 60.24023438 C22.30020508 59.86511719 21.47907227 59.49 20.63305664 59.10351562 C7.68186778 54.65217388 -10.44570551 55.39179684 -22.94506836 60.76367188 C-23.9131543 61.2509375 -24.88124023 61.73820313 -25.87866211 62.24023438 C-26.77456055 62.68625 -27.67045898 63.13226562 -28.59350586 63.59179688 C-43.98054639 72.07956346 -54.33238181 85.79596922 -59.75366211 102.36523438 C-62.37295634 113.10745894 -62.39409683 126.06056175 -57.87866211 136.24023438 C-57.37979492 137.37203125 -56.88092773 138.50382812 -56.36694336 139.66992188 C-53.40229347 146.08679489 -50.18225192 151.7135282 -45.16381836 156.78710938 C-43.87866211 158.24023438 -43.87866211 158.24023438 -43.87866211 160.24023438 C-43.29084961 160.51351563 -42.70303711 160.78679687 -42.09741211 161.06835938 C-39.94384655 162.20580597 -38.26097771 163.45466112 -36.37866211 164.99023438 C-22.13483897 175.87315543 -5.40417956 178.9667397 12.12133789 177.24023438 C29.58300217 173.94649465 44.18017608 163.74756426 54.12133789 149.24023438 C61.15532427 152.63823155 67.91802824 156.35762404 74.62133789 160.36523438 C75.56315918 160.9249292 76.50498047 161.48462402 77.4753418 162.0612793 C86.40308038 167.37934117 95.27393367 172.78979646 104.12133789 178.24023438 C97.06680564 197.76799755 75.3447464 213.3079359 57.2668457 222.14697266 C53.27767025 223.99855623 49.21489651 225.6362679 45.12133789 227.24023438 C44.23446289 227.61921875 43.34758789 227.99820312 42.43383789 228.38867188 C28.57588089 234.00790444 14.1828172 234.5333714 -0.56616211 234.61523438 C-1.26050354 234.6230896 -1.95484497 234.63094482 -2.67022705 234.63903809 C-15.6244074 234.75295628 -28.00806269 233.09657555 -40.25366211 228.61523438 C-40.95007813 228.36290039 -41.64649414 228.11056641 -42.36401367 227.85058594 C-55.93658241 222.7342568 -67.79796838 215.53469606 -78.87866211 206.24023438 C-79.69850586 205.5725 -80.51834961 204.90476562 -81.36303711 204.21679688 C-102.17528707 186.63403398 -117.15514561 158.67200922 -119.7175293 131.51074219 C-122.10659068 97.84669537 -114.55934368 68.34057335 -92.87866211 42.24023438 C-92.20963867 41.4178125 -91.54061523 40.59539063 -90.85131836 39.74804688 C-72.76584608 18.37094467 -44.16083742 3.48489121 -16.34838867 0.40795898 C-10.9056761 0.0383323 -5.45311675 0.01467371 0 0 Z " fill="#FDFEFE" transform="translate(290.878662109375,906.759765625)"/>
<path d="M0 0 C-1.60900108 11.52222062 -3.87062201 22.90305144 -6.125 34.3125 C-6.50154486 36.22846793 -6.87784874 38.14448323 -7.25390625 40.06054688 C-8.16649625 44.70758158 -9.08233551 49.35396483 -10 54 C-10.86067581 54.03218376 -10.86067581 54.03218376 -11.73873901 54.0650177 C-14.36523764 54.16744019 -16.99115101 54.28089698 -19.6171875 54.39453125 C-20.51977295 54.42808716 -21.4223584 54.46164307 -22.35229492 54.49621582 C-29.18018854 54.80317498 -34.86240887 55.86569649 -41 59 C-41.85722656 59.41121094 -42.71445312 59.82242188 -43.59765625 60.24609375 C-54.74371433 66.18057113 -60.25767515 75.91735833 -64.1875 87.5 C-66.1496002 95.95212396 -66.16365966 104.41421072 -66.20532227 113.04711914 C-66.21522186 114.32615112 -66.22512146 115.60518311 -66.23532104 116.92297363 C-66.26215703 120.40371523 -66.28328073 123.88447009 -66.30332303 127.36525655 C-66.32531539 131.01276975 -66.35263873 134.66024307 -66.37937927 138.307724 C-66.42912821 145.2028912 -66.47413243 152.09808074 -66.51740164 158.99329132 C-66.57620091 168.31917263 -66.64239121 177.64500135 -66.70815182 186.97083569 C-66.81144778 201.64718826 -66.90492193 216.32358655 -67 231 C-86.8 231 -106.6 231 -127 231 C-127 156.42 -127 81.84 -127 5 C-107.2 5 -87.4 5 -67 5 C-66.505 16.88 -66.505 16.88 -66 29 C-64.411875 27.185 -62.82375 25.37 -61.1875 23.5 C-44.65953966 5.29536142 -23.95796942 -0.27498693 0 0 Z " fill="#FEFEFE" transform="translate(1037,907)"/>
<path d="M0 0 C-3.17281816 18.03303335 -6.48772004 36.02977534 -10 54 C-11.84851562 54.03867187 -11.84851562 54.03867187 -13.734375 54.078125 C-28.67047107 54.52711493 -40.55259264 56.54566426 -52 67 C-63.38048774 79.75545373 -65.2891096 95.91853155 -65.31884766 112.3659668 C-65.33391609 114.29958321 -65.33391609 114.29958321 -65.34928894 116.27226257 C-65.37634317 119.77148729 -65.39166441 123.27067233 -65.40471697 126.76997352 C-65.4204564 130.44018536 -65.44721151 134.11031741 -65.4727478 137.7804718 C-65.51934571 144.71452159 -65.55618105 151.64858671 -65.58942068 158.58271199 C-65.63496352 167.9640368 -65.69576638 177.34526228 -65.75566864 186.72650433 C-65.8495034 201.48428617 -65.92310431 216.24209765 -66 231 C-85.14 231 -104.28 231 -124 231 C-124 156.42 -124 81.84 -124 5 C-104.86 5 -85.72 5 -66 5 C-65.505 17.375 -65.505 17.375 -65 30 C-62.69 27.03 -60.38 24.06 -58 21 C-48.61361295 10.97251121 -37.14773496 5.39351395 -24 2 C-23.24332031 1.77441406 -22.48664063 1.54882812 -21.70703125 1.31640625 C-14.60973476 -0.61437797 -7.29133694 -0.17291708 0 0 Z " fill="#FEFEFE" transform="translate(1632,907)"/>
<path d="M0 0 C10.37144014 7.95479389 17.43406661 17.89196343 22.12890625 30.03515625 C22.54140625 31.08703125 22.95390625 32.13890625 23.37890625 33.22265625 C27.40812477 48.3322257 25.51032794 64.81680363 18.56640625 78.78515625 C8.83656758 95.11650571 -6.97385078 106.15890466 -25.12890625 111.33984375 C-42.37309402 114.54387864 -60.17871097 111.86657185 -74.87109375 102.03515625 C-88.03711893 92.59980671 -98.97094548 79.40908839 -102.484375 63.20703125 C-104.7825405 44.35743137 -100.88647398 27.54909131 -89.87109375 12.03515625 C-89.42121094 11.39835938 -88.97132812 10.7615625 -88.5078125 10.10546875 C-67.18870351 -17.18802181 -27.10643812 -18.55039234 0 0 Z " fill="#0056D2" transform="translate(1793.87109375,975.96484375)"/>
<path d="M0 0 C0.90814453 -0.01224609 1.81628906 -0.02449219 2.75195312 -0.03710938 C18.37049163 -0.07064954 31.70730371 5.42962542 43.8125 15.1875 C44.64910156 15.8165625 45.48570312 16.445625 46.34765625 17.09375 C56.23682999 25.4940624 64.78085208 40.32485421 66.01586914 53.32885742 C66.1165507 55.68187879 66.1415902 58.01990207 66.125 60.375 C66.11936035 61.21361572 66.1137207 62.05223145 66.10791016 62.91625977 C65.77318877 80.1345268 58.58460258 94.12798264 46.6875 106.375 C38.39473982 114.19388817 28.61223091 118.81461107 17.8125 122.1875 C17.09835937 122.414375 16.38421875 122.64125 15.6484375 122.875 C-0.2890453 127.17274817 -17.00471417 123.36906333 -31.05078125 115.30078125 C-45.94812136 105.26409258 -57.20234603 90.9395495 -61.1875 73.1875 C-62.35795905 60.27720297 -62.52481637 47.75229814 -56.1875 36.1875 C-55.67960937 35.16785156 -55.17171875 34.14820313 -54.6484375 33.09765625 C-45.99058576 16.82828082 -31.46262539 6.77792252 -14.1875 1.1875 C-9.48402514 -0.17655037 -4.86348474 0.00337977 0 0 Z " fill="#0156D2" transform="translate(523.1875,963.8125)"/>
<path d="M0 0 C8.42771679 6.26713065 15.21467419 12.82680698 19.30078125 22.7109375 C19.79578125 26.6709375 19.79578125 26.6709375 20.30078125 30.7109375 C-17.31921875 30.7109375 -54.93921875 30.7109375 -93.69921875 30.7109375 C-88.47931637 15.05123037 -78.74832962 3.90516959 -64.1640625 -3.59375 C-63.02066406 -4.15320313 -61.87726563 -4.71265625 -60.69921875 -5.2890625 C-59.81363281 -5.74539063 -58.92804688 -6.20171875 -58.015625 -6.671875 C-40.33408075 -14.18587449 -15.7841499 -10.45202531 0 0 Z " fill="#0156D2" transform="translate(1403.69921875,970.2890625)"/>
</svg>
