<?xml version="1.0" encoding="UTF-8"?>
<svg version="1.1" xmlns="http://www.w3.org/2000/svg" width="597" height="312">
<path d="M0 0 C0.95043999 0.00037972 1.90087997 0.00075944 2.88012117 0.00115067 C3.97241504 -0.00084038 5.0647089 -0.00283143 6.19010258 -0.00488281 C8.01253354 -0.00051355 8.01253354 -0.00051355 9.87178129 0.00394398 C11.1507876 0.00308955 12.42979392 0.00223513 13.747558 0.00135481 C17.31400243 -0.00089256 20.88041711 0.00313442 24.44685775 0.00813287 C28.28668519 0.01243374 32.12651083 0.01099121 35.96634001 0.0102306 C42.6245275 0.00970513 49.28270522 0.0128543 55.94089025 0.01846844 C65.56761995 0.02658037 75.1943449 0.02919834 84.82107764 0.03045643 C100.43815549 0.03264743 116.05522812 0.03930883 131.67230314 0.04875904 C146.84678204 0.05793191 162.02125953 0.06501336 177.19574064 0.06926686 C178.13040753 0.06952958 179.06507442 0.0697923 180.02806456 0.07006299 C184.71680822 0.07136798 189.40555189 0.0726317 194.09429556 0.07387489 C233.01914614 0.08424901 271.9439909 0.10186863 310.86883634 0.1241985 C310.72206919 1.85972315 310.5721092 3.59497795 310.4208383 5.33011585 C310.33767866 6.29646426 310.25451902 7.26281267 310.1688394 8.25844437 C309.73692732 12.38424848 308.93525642 16.39033481 308.05633634 20.44060475 C307.88255461 21.26374668 307.70877287 22.08688862 307.52972502 22.93497425 C307.16626166 24.65045968 306.79978912 26.36531021 306.43035978 28.07952076 C305.86364902 30.71078344 305.30693285 33.34401868 304.75164884 35.97771412 C304.39545168 37.65296641 304.03870136 39.3281012 303.68133634 41.00310475 C303.4312985 42.18266491 303.4312985 42.18266491 303.17620939 43.38605458 C301.98530956 48.89125207 301.98530956 48.89125207 300.86883634 51.1241985 C366.53883634 51.1241985 432.20883634 51.1241985 499.86883634 51.1241985 C498.74385178 62.37404408 498.74385178 62.37404408 497.85382169 66.5059734 C497.55264039 67.92379659 497.55264039 67.92379659 497.24537462 69.37026268 C497.02637089 70.37412986 496.80736717 71.37799704 496.58172697 72.41228443 C496.34814828 73.50422832 496.11456959 74.5961722 495.87391275 75.72120529 C495.09606915 79.35144359 494.31053037 82.97997272 493.52508634 86.6085735 C492.96604208 89.21123214 492.4074607 91.81398587 491.84950346 94.41687733 C490.65343813 99.99265579 489.45368199 105.56762885 488.25131315 111.14205128 C486.35903195 119.91548834 484.47371683 128.69041347 482.59027189 137.46575123 C482.43237208 138.20142303 482.27447227 138.93709483 482.11178762 139.69505972 C481.46909944 142.68951143 480.82644344 145.68397003 480.18389189 148.67845106 C479.37017718 152.47056343 478.55622265 156.26262401 477.74173635 160.05457073 C473.10197027 181.65578101 468.49530398 203.26374546 463.92740768 224.88026911 C463.48492774 226.97418154 463.04233361 229.0680698 462.59971327 231.16195256 C459.80300512 244.39297432 457.01006502 257.62478584 454.22236437 270.85770851 C453.20496725 275.6845023 452.18544519 280.51084551 451.16539663 285.33707958 C450.69324869 287.57367814 450.22212116 289.81049238 449.75207037 292.04753262 C449.11482256 295.08020498 448.47428957 298.11216515 447.83294767 301.14397389 C447.6467008 302.03465943 447.46045393 302.92534497 447.26856321 303.84302098 C445.98282592 309.89621934 445.98282592 309.89621934 444.86883634 312.1241985 C362.03883634 312.1241985 279.20883634 312.1241985 193.86883634 312.1241985 C196.06744576 290.13810428 202.15874968 268.7120957 206.86883634 247.1241985 C120.73883634 246.7941985 34.60883634 246.4641985 -54.13116366 246.1241985 C-40.33575834 178.29678903 -40.33575834 178.29678903 -35.72881991 156.41716725 C-35.19402413 153.86994508 -34.65939795 151.3226873 -34.12492281 148.77539784 C-32.75579669 142.25163 -31.38429849 135.72836248 -30.01232821 129.20519215 C-28.37742316 121.42973344 -26.74524294 113.65370233 -25.11266047 105.8777557 C-23.76233983 99.44679754 -22.41124036 93.01600517 -21.0583182 86.58559376 C-18.33163955 73.62280011 -15.61497526 60.65805846 -12.917422 47.68917698 C-12.01099197 43.33329682 -11.10263469 38.97781808 -10.19427562 34.62233984 C-9.32378076 30.44711362 -8.45662262 26.27121197 -7.5918861 22.09478956 C-6.93532762 18.92860181 -6.2739411 15.7634221 -5.61334139 12.59807545 C-5.25680011 10.86794051 -5.25680011 10.86794051 -4.89305598 9.10285336 C-4.56521837 7.53836358 -4.56521837 7.53836358 -4.23075777 5.94226795 C-4.04143396 5.03063546 -3.85211014 4.11900297 -3.65704924 3.17974526 C-2.9550799 0.43593398 -2.85496744 0.16637984 0 0 Z " fill="#09262B" transform="translate(54.13116365671158,-0.12419849634170532)"/>
<path d="M0 0 C15.18 0 30.36 0 46 0 C49.79427798 7.58855596 53.41608809 15.0376975 56.671875 22.83984375 C57.28461273 24.29482018 57.28461273 24.29482018 57.909729 25.77919006 C59.19358787 28.83039252 60.47184139 31.883906 61.75 34.9375 C62.62073408 37.00861479 63.49182513 39.07957954 64.36328125 41.15039062 C71.06784361 57.09769412 71.06784361 57.09769412 73 62 C76.0118602 60.67789709 77.80540131 59.36610497 79.84765625 56.796875 C80.36448975 56.15371338 80.88132324 55.51055176 81.41381836 54.84790039 C81.9578833 54.15559326 82.50194824 53.46328613 83.0625 52.75 C83.63685791 52.03126709 84.21121582 51.31253418 84.80297852 50.57202148 C88.82324756 45.52988546 92.79598668 40.44961747 96.76171875 35.36450195 C100.97350782 29.98369867 105.32091983 24.71768499 109.70288086 19.47485352 C110.24565674 18.82186279 110.78843262 18.16887207 111.34765625 17.49609375 C111.93708008 16.81683838 112.52650391 16.13758301 113.13378906 15.43774414 C115.14866215 12.9423735 115.14866215 12.9423735 116.81152344 9.60717773 C118.9927782 5.73087197 121.15431915 2.37763692 125 0 C132.78164457 -2.13946851 141.16038297 -1.21971439 149.125 -0.8125 C151.34358061 -0.74721904 153.56234564 -0.68791597 155.78125 -0.63476562 C161.19155429 -0.49221538 166.59491439 -0.27537952 172 0 C171.06221798 1.26728865 170.12205098 2.53281261 169.1809082 3.79760742 C168.65761429 4.5025383 168.13432037 5.20746918 167.59516907 5.9337616 C165.30310577 8.90269405 162.77481644 11.60195765 160.1875 14.3125 C155.65950511 19.13158528 151.41809643 24.09481295 147.27734375 29.25390625 C144.78173531 32.26319052 142.16234857 35.13938654 139.5 38 C136.02580757 41.73327255 132.6993129 45.52371111 129.5 49.5 C126.30068278 53.47629426 122.97415055 57.26668298 119.5 61 C115.21736862 65.60255127 111.20831105 70.36172584 107.265625 75.26171875 C104.0649484 79.13012271 100.67409687 82.81055571 97.26171875 86.4921875 C96.51535156 87.31976563 95.76898438 88.14734375 95 89 C94.22269531 89.80695313 93.44539062 90.61390625 92.64453125 91.4453125 C90.71301898 93.87926219 90.71301898 93.87926219 91.21508789 96.73217773 C92.08474371 100.35281324 93.36332827 103.45415936 94.9140625 106.83984375 C95.20679047 107.48385635 95.49951843 108.12786896 95.80111694 108.79139709 C96.73575768 110.84321471 97.68022736 112.8903312 98.625 114.9375 C99.23631813 116.2764002 99.84700017 117.61559103 100.45703125 118.95507812 C102.85132132 124.20182537 105.26470002 129.43948314 107.71484375 134.66040039 C112.92113999 145.75444918 117.91340174 156.93956135 122.89501953 168.13598633 C124.0070451 170.63411486 125.12066729 173.1315273 126.234375 175.62890625 C126.56878601 176.38208633 126.90319702 177.13526642 127.2477417 177.91127014 C128.67180435 181.10407462 130.12074359 184.23209337 131.73535156 187.33569336 C133 190 133 190 133 193 C118.15 193 103.3 193 88 193 C78.80080806 174.60161613 78.80080806 174.60161613 75.16796875 166.49609375 C74.7646785 165.60310074 74.36138824 164.71010773 73.94587708 163.79005432 C72.69006638 161.00721832 71.43876384 158.22238284 70.1875 155.4375 C69.33426597 153.5460969 68.48075169 151.6548202 67.62695312 149.76367188 C61.0324504 135.13942872 61.0324504 135.13942872 58 128 C54.76015149 128.29862951 53.31218741 128.69140784 50.96484375 131.01171875 C50.29582031 131.89472656 49.62679687 132.77773437 48.9375 133.6875 C48.16019531 134.68394531 47.38289063 135.68039063 46.58203125 136.70703125 C45.95868896 137.51068115 45.95868896 137.51068115 45.32275391 138.33056641 C43.00863461 141.25119168 40.56265802 144.05743706 38.125 146.875 C37.0972773 148.06868426 36.06993469 149.26269586 35.04296875 150.45703125 C34.53556152 151.04693848 34.0281543 151.6368457 33.50537109 152.24462891 C29.76795333 156.60272714 26.07122349 160.99545527 22.36767578 165.38232422 C20.97540583 167.02908979 19.57994527 168.67310067 18.18359375 170.31640625 C12.98067157 176.44353172 7.83573901 182.60793899 2.77734375 188.85546875 C-0.61854447 192.95292509 -0.61854447 192.95292509 -2.94888306 193.24050903 C-4.14135147 193.2338472 -4.14135147 193.2338472 -5.35791016 193.22705078 C-6.25869293 193.22689972 -7.15947571 193.22674866 -8.08755493 193.22659302 C-9.06155243 193.21627045 -10.03554993 193.20594788 -11.0390625 193.1953125 C-12.03505463 193.1924826 -13.03104675 193.18965271 -14.05722046 193.18673706 C-17.24660118 193.1755184 -20.43570378 193.15041081 -23.625 193.125 C-25.78385012 193.11497238 -27.94270463 193.10584615 -30.1015625 193.09765625 C-35.40113699 193.07557361 -40.70054863 193.04207958 -46 193 C-43.5458434 188.78113691 -40.71013972 185.16118921 -37.5 181.5 C-36.41758133 180.2516379 -35.33555866 179.00293234 -34.25390625 177.75390625 C-33.70879395 177.12629395 -33.16368164 176.49868164 -32.60205078 175.85205078 C-30.19184837 173.06573632 -27.81310379 170.25331701 -25.4375 167.4375 C-24.53258165 166.36586045 -23.62763371 165.29424588 -22.72265625 164.22265625 C-22.2755127 163.6930127 -21.82836914 163.16336914 -21.36767578 162.61767578 C-19.97540583 160.97091021 -18.57994527 159.32689933 -17.18359375 157.68359375 C-12.95146367 152.69973752 -8.74262602 147.70440728 -4.625 142.625 C-0.45843577 137.50266476 3.86201281 132.52582622 8.20043945 127.54956055 C12.11581708 123.0482781 15.91777755 118.46903681 19.671875 113.83203125 C22.99805829 109.78591903 26.41560898 105.82020343 29.84008789 101.85717773 C30.79435077 100.75107493 31.74326019 99.64032465 32.68603516 98.52441406 C33.88673113 97.13141041 35.14970486 95.79271703 36.41796875 94.4609375 C38.30304948 92.08615519 38.30304948 92.08615519 37.72900391 89.1652832 C37.0430974 86.18712585 36.1675382 83.67586524 34.91796875 80.89453125 C34.48701904 79.92572021 34.05606934 78.95690918 33.61206055 77.95874023 C33.14195557 76.92048096 32.67185059 75.88222168 32.1875 74.8125 C31.69612549 73.71172119 31.20475098 72.61094238 30.69848633 71.47680664 C29.6586036 69.14830559 28.61581411 66.82110077 27.5703125 64.49511719 C25.09372815 58.98286882 22.6412361 53.45994777 20.1875 47.9375 C19.70337646 46.84872559 19.21925293 45.75995117 18.72045898 44.63818359 C14.86813713 35.96905392 11.02545447 27.2956814 7.2069397 18.61160278 C6.57148826 17.16789975 5.93475886 15.72475851 5.29672241 14.28219604 C4.40783948 12.27168801 3.52364569 10.259182 2.640625 8.24609375 C2.13047852 7.08779053 1.62033203 5.9294873 1.09472656 4.73608398 C0 2 0 2 0 0 Z " fill="#FEFEFE" transform="translate(338,85)"/>
<path d="M0 0 C0.83265381 0.00523682 1.66530762 0.01047363 2.52319336 0.01586914 C3.42231445 0.0190918 4.32143555 0.02231445 5.24780273 0.02563477 C6.66609375 0.03820313 6.66609375 0.03820313 8.11303711 0.05102539 C9.53712891 0.05779297 9.53712891 0.05779297 10.98999023 0.06469727 C13.34356776 0.07652429 15.69702188 0.09300514 18.05053711 0.11352539 C16.99919854 9.30881498 15.19280641 18.17091906 13.07910156 27.16845703 C11.38039341 34.47284049 9.92633567 41.80454997 8.55053711 49.17602539 C6.86716055 58.16176877 4.9539976 67.05018506 2.78271484 75.92993164 C1.34065236 81.83698363 0.08153224 87.75635451 -1.07446289 93.72680664 C-2.26426118 99.78918234 -3.58691601 105.82405701 -4.88696289 111.86352539 C-7.40719422 123.57797212 -7.40719422 123.57797212 -9.88696289 135.30102539 C-11.81013819 144.47073367 -13.75451691 153.63591527 -15.69946289 162.80102539 C-15.86034393 163.55918549 -16.02122498 164.31734558 -16.1869812 165.09848022 C-17.10761333 169.43687006 -18.0285074 173.77520416 -18.94946289 178.11352539 C-25.54946289 178.11352539 -32.14946289 178.11352539 -38.94946289 178.11352539 C-38.34735169 173.89874699 -37.739721 169.82611487 -36.88696289 165.67602539 C-36.71036133 164.81106445 -36.53375977 163.94610352 -36.35180664 163.05493164 C-36.2190332 162.41426758 -36.08625977 161.77360352 -35.94946289 161.11352539 C-36.58883789 161.79415039 -37.22821289 162.47477539 -37.88696289 163.17602539 C-48.9319281 174.12791505 -61.08880947 180.46742991 -76.69946289 180.48852539 C-77.63790039 180.51301758 -78.57633789 180.53750977 -79.54321289 180.56274414 C-91.74085081 180.61328684 -101.58922796 175.05815405 -110.57446289 167.11352539 C-120.77423828 156.39190103 -124.40770329 141.20652915 -124.2331543 126.87280273 C-123.60536256 104.27702049 -116.39446582 82.078176 -99.94946289 66.11352539 C-99.24047852 65.39551758 -98.53149414 64.67750977 -97.80102539 63.93774414 C-87.23552389 53.81088259 -73.65357793 48.51504774 -59.13696289 48.61352539 C-57.68555908 48.62101807 -57.68555908 48.62101807 -56.20483398 48.62866211 C-48.6052336 48.81370696 -42.50155636 50.08228606 -35.94946289 54.11352539 C-35.19665039 54.57114258 -34.44383789 55.02875977 -33.66821289 55.50024414 C-27.18062599 59.91809716 -22.62908937 65.74455257 -19.94946289 73.11352539 C-19.28946289 73.44352539 -18.62946289 73.77352539 -17.94946289 74.11352539 C-17.77858154 73.0995166 -17.6077002 72.08550781 -17.43164062 71.04077148 C-15.57819541 60.20488344 -13.37635311 49.47315958 -11.01196289 38.73852539 C-10.30244058 35.49659736 -9.5947956 32.25426018 -8.88696289 29.01196289 C-8.71661026 28.23336914 -8.54625763 27.45477539 -8.3707428 26.65258789 C-6.8750587 19.80577393 -5.43176299 12.94832995 -4.05322266 6.0769043 C-2.84062926 0.16542174 -2.84062926 0.16542174 0 0 Z " fill="#FCFCFC" transform="translate(305.949462890625,33.886474609375)"/>
<path d="M0 0 C4.59715742 3.5547787 7.99220559 7.27303525 11.0625 12.1875 C11.43890625 12.75082031 11.8153125 13.31414062 12.203125 13.89453125 C17.81021302 22.82821253 18.5010632 32.11366475 18.3125 42.4375 C18.30734375 43.5821875 18.3021875 44.726875 18.296875 45.90625 C18.24762503 51.20062199 17.93926642 55.92690149 17.0625 61.1875 C-13.2975 61.1875 -43.6575 61.1875 -74.9375 61.1875 C-73.71609213 81.0095011 -73.71609213 81.0095011 -63.6875 96.6875 C-54.73445873 103.25176887 -44.76841786 104.70112937 -33.9375 103.1875 C-26.66847864 101.31854193 -20.15090947 98.67529944 -14.9375 93.1875 C-14.62425781 92.31738281 -14.31101562 91.44726562 -13.98828125 90.55078125 C-11.9375 88.1875 -11.9375 88.1875 -9.63671875 87.78466797 C-6.66029707 87.6939866 -3.72526345 87.75329319 -0.75 87.875 C0.28576172 87.89755859 1.32152344 87.92011719 2.38867188 87.94335938 C4.94806404 88.00233154 7.50455951 88.08457433 10.0625 88.1875 C9.60776623 89.62135541 9.14694023 91.05327955 8.68359375 92.484375 C8.42763428 93.28198242 8.1716748 94.07958984 7.90795898 94.90136719 C6.7465338 98.04187697 5.06534466 100.51704045 3.0625 103.1875 C2.258125 104.3940625 2.258125 104.3940625 1.4375 105.625 C-8.88660086 116.76416145 -23.88389286 121.9458963 -38.77734375 122.5234375 C-40.80980103 122.54699464 -42.84240786 122.55990906 -44.875 122.5625 C-45.88240234 122.58699219 -46.88980469 122.61148438 -47.92773438 122.63671875 C-61.2591369 122.68815825 -72.97302165 117.04595573 -82.6875 108.0625 C-87.44870966 103.09061735 -90.25891233 97.47559434 -92.9375 91.1875 C-93.29972656 90.36765625 -93.66195312 89.5478125 -94.03515625 88.703125 C-100.39668364 70.96795773 -96.37443938 46.50664343 -88.76074219 29.84716797 C-80.42559919 12.47438544 -68.32080364 -0.22564853 -49.9375 -6.8125 C-32.62558491 -12.05337484 -14.92020612 -10.09952537 0 0 Z " fill="#FDFDFD" transform="translate(151.9375,91.8125)"/>
<path d="M0 0 C6.13638444 5.00599784 10.32594242 11.55083632 11.75 19.375 C13.56391305 39.04391399 10.8711699 57.00337745 -1.28125 73.05859375 C-9.24146063 82.49032219 -19.05668951 88.57654601 -31.48828125 89.65625 C-37.98301761 89.83603509 -43.49240123 89.50274212 -49.25 86.375 C-50.13751953 85.91673828 -50.13751953 85.91673828 -51.04296875 85.44921875 C-57.81550279 81.33785703 -62.03977657 74.1307267 -64.421875 66.73828125 C-68.43292704 48.8731694 -65.58502787 30.23296423 -55.9375 14.8125 C-49.25867402 4.85072121 -40.76140014 -1.50465924 -29.2734375 -5.2734375 C-19.06773408 -7.04662921 -8.63937409 -5.87934721 0 0 Z " fill="#0A272C" transform="translate(269.25,106.625)"/>
<path d="M0 0 C0.59039062 0.3403125 1.18078125 0.680625 1.7890625 1.03125 C8.75301949 5.41706121 11.45190399 11.35571197 14 19 C14 23.62 14 28.24 14 33 C-8.77 33 -31.54 33 -55 33 C-53.02792361 21.16754168 -46.92896414 11.93117158 -38 4 C-27.37755554 -3.23351446 -11.69053622 -7.0630323 0 0 Z " fill="#0C282D" transform="translate(135,104)"/>
<path d="M0 0 C5.00230198 2.45567552 8.49851535 5.9970307 11 11 C11.72218508 18.13897709 11.44960235 23.26235486 7 29 C2.42791149 33.04045031 -2.01051654 34.24364001 -8 34 C-14.23342546 32.83821461 -17.41672004 30.10345933 -21 25 C-23.09182531 20.81634937 -22.42935408 15.55592381 -22 11 C-17.30791252 1.26826301 -10.09827072 -1.02839532 0 0 Z M-15 8 C-17.96614555 11.55937466 -18.48005273 14.57465211 -18.28515625 19.07421875 C-17.85302931 21.99255546 -16.87353415 23.73883809 -15 26 C-11.81137485 28.34951327 -8.97953806 29.81049819 -5 30 C-0.36995962 28.45665321 2.85342534 26.75168517 6 23 C7.59543625 19.80912749 7.38061724 16.47229758 7 13 C5.50282018 9.79175753 3.72481464 7.27067886 1 5 C-5.46740467 2.84419844 -9.78798686 3.61717077 -15 8 Z " fill="#09262B" transform="translate(586,51)"/>
<path d="M0 0 C8.3984375 -0.1953125 8.3984375 -0.1953125 11 0 C13 2 13 2 13.1875 5 C13 8 13 8 12 10 C12.60578253 12.01927511 13.26919734 14.02253397 14 16 C11.625 15.75 11.625 15.75 9 15 C7.875 13 7.875 13 7 11 C6.01 10.67 5.02 10.34 4 10 C4 11.98 4 13.96 4 16 C2.68 16 1.36 16 0 16 C0 10.72 0 5.44 0 0 Z M4 3 C4 4.32 4 5.64 4 7 C5.65 6.67 7.3 6.34 9 6 C9 5.01 9 4.02 9 3 C7.35 3 5.7 3 4 3 Z " fill="#09262B" transform="translate(574,60)"/>
</svg>
