<?xml version="1.0" encoding="UTF-8"?>
<svg version="1.1" xmlns="http://www.w3.org/2000/svg" width="2560" height="293">
<path d="M0 0 C5.71999628 3.24702777 10.24376443 7.50578643 15 12 C15.54398438 12.50998535 16.08796875 13.0199707 16.6484375 13.54541016 C38.51422836 34.19299944 53.17505604 58.27638326 55.18359375 88.7890625 C55.37975298 96.6123543 54.18907619 104.28730522 53 112 C52.87157715 112.8338623 52.7431543 113.66772461 52.61083984 114.52685547 C51.75960344 120.02101592 50.88621416 125.51138028 50 131 C51.43780527 130.75337882 52.87211933 130.48635438 54.3046875 130.2109375 C55.10374512 130.06446777 55.90280273 129.91799805 56.72607422 129.76708984 C61.00904992 128.32226381 62.78870017 124.73593287 65 121 C65.63421875 119.94554687 66.2684375 118.89109375 66.921875 117.8046875 C68.64648701 114.88664398 70.3363977 111.95314018 72 109 C76.69471565 110.50360709 78.46702669 114.32016344 80.875 118.3125 C81.31408691 119.03163574 81.75317383 119.75077148 82.20556641 120.49169922 C94.75011047 141.38079083 100.96256812 164.66476147 94.96484375 188.7109375 C90.61766168 203.5300764 83.79738694 216.68577312 73.04296875 227.8515625 C70.93139449 230.00771599 70.93139449 230.00771599 68.96875 232.5625 C63.72732586 239.05188226 56.59925084 243.97418166 50 249 C49.34 248.67 48.68 248.34 48 248 C48.65226562 247.18917969 49.30453125 246.37835938 49.9765625 245.54296875 C55.40509618 238.70480435 60.28084932 231.94968458 64 224 C64.4125 223.11828125 64.825 222.2365625 65.25 221.328125 C68.60519194 213.26634436 69.85439451 204.55871983 66.5 196.3125 C66.005 195.549375 65.51 194.78625 65 194 C65 193.34 65 192.68 65 192 C64.46632813 192.144375 63.93265625 192.28875 63.3828125 192.4375 C53.39608929 194.92554177 43.01250733 195.23750395 33.75 190.25 C27.63566866 185.24736527 23.55620861 179.46822923 22.74536133 171.49658203 C22.66999537 168.80393898 22.68849199 166.13039753 22.75 163.4375 C22.75515625 162.53064453 22.7603125 161.62378906 22.765625 160.68945312 C22.80898721 156.95217272 22.94413326 153.37186301 23.5 149.671875 C24.26418093 144.05992132 24.22517376 138.46978047 24.25 132.8125 C24.270625 131.65685547 24.29125 130.50121094 24.3125 129.31054688 C24.35341274 120.20234823 24.10120189 110.27212884 18 103 C17.52175781 104.0003125 17.04351563 105.000625 16.55078125 106.03125 C10.98879729 117.26107335 4.43494329 127.65079011 -2.5 138.0625 C-19.75807834 164.02512839 -39.27619596 193.90287196 -33.33984375 226.640625 C-31.33939555 234.08818107 -28.01985019 239.24232406 -23 245 C-22.67 245.66 -22.34 246.32 -22 247 C-26.9868518 245.46120002 -30.33829464 242.5048497 -34.1875 239.125 C-35.18052124 238.25379517 -35.18052124 238.25379517 -36.19360352 237.36499023 C-54.08011319 221.35600995 -65.07142723 201.21430049 -67.25390625 177.20703125 C-67.87272635 151.9179165 -55.29078784 130.77533814 -41.625 110.625 C-26.95212287 88.93927968 -13.90269798 66.3423036 -5.5 41.4375 C-5.01055908 39.99383057 -5.01055908 39.99383057 -4.51123047 38.52099609 C-1.28375602 28.53970073 0.35689496 18.73878762 0.125 8.25 C0.11597656 7.445625 0.10695313 6.64125 0.09765625 5.8125 C0.07458915 3.87486386 0.03874772 1.937386 0 0 Z " fill="#000000" transform="translate(2333,15)"/>
<path d="M0 0 C3.09799981 2.19126816 3.80352112 3.41056336 5 7 C5.10479165 9.87555078 5.15218795 12.72728488 5.15390015 15.60324097 C5.16047353 16.93711576 5.16047353 16.93711576 5.1671797 18.29793751 C5.18057714 21.2896102 5.18674863 24.28125342 5.19287109 27.27294922 C5.20077114 29.41303643 5.20904003 31.55312232 5.21765137 33.69320679 C5.24387678 40.73035407 5.25917684 47.76750733 5.2734375 54.8046875 C5.27879645 57.22499724 5.28417396 59.64530695 5.28956985 62.06561661 C5.31119692 72.12985404 5.32993555 82.19408986 5.34119225 92.25834465 C5.35744491 106.69538614 5.39065685 121.13215907 5.44759309 135.56909931 C5.48624134 145.71352773 5.50581872 155.85788417 5.51111281 166.00238431 C5.51477249 172.06515627 5.52685994 178.12764184 5.55921555 184.19033432 C5.58920692 189.8916316 5.59563981 195.59246781 5.58383179 201.29382706 C5.58361032 203.38807134 5.59197526 205.48233648 5.60948563 207.57650757 C5.63206925 210.43249575 5.62393261 213.28679664 5.60800171 216.14279175 C5.6218838 216.97440791 5.63576588 217.80602407 5.65006864 218.66284072 C5.59092684 222.95632528 5.37483839 224.52823483 2.60677528 228.01207161 C-0.82942202 230.63251773 -2.72888877 230.75313922 -6.91015625 230.4609375 C-9 230 -9 230 -11.5 228.25 C-13.77044716 223.33069782 -13.82890614 218.36379258 -14 213 C-18.48184587 215.15128602 -22.78873615 217.45010855 -27.0637207 219.99194336 C-46.20483966 231.30530185 -71.4810638 232.27571576 -92.890625 226.97265625 C-108.07404372 222.22306924 -120.42863665 215.43283114 -128.53125 201.3359375 C-134.13743482 190.02578557 -134.31491896 178.09683345 -134.30078125 165.69921875 C-134.30468308 164.25014629 -134.30902071 162.80107495 -134.31376648 161.352005 C-134.32117255 158.33236973 -134.32097899 155.31285148 -134.31567383 152.29321289 C-134.30989119 148.46774332 -134.32680838 144.64275984 -134.3500185 140.81737041 C-134.36491718 137.82891652 -134.36560586 134.84057531 -134.36250877 131.85209084 C-134.36301408 130.44381563 -134.36809874 129.03553274 -134.37832069 127.62729454 C-134.48350165 111.11369751 -132.53836074 95.80079036 -120.875 83.25 C-106.36207477 69.68356989 -86.38166982 65.3447188 -66.96875 65.8125 C-49.64136211 66.90686134 -34.72247567 70.25949618 -20.33325195 80.60375977 C-19.7076387 81.05284195 -19.08202545 81.50192413 -18.43745422 81.96461487 C-17.96309433 82.30629196 -17.48873444 82.64796906 -17 83 C-16.99120064 81.654823 -16.99120064 81.654823 -16.98222351 80.2824707 C-16.92418715 71.80829011 -16.85204791 63.33437002 -16.76428509 54.86044312 C-16.71966274 50.50447459 -16.68038897 46.14859784 -16.65356445 41.79248047 C-16.62744992 37.58423004 -16.58699067 33.37633432 -16.53681374 29.16830444 C-16.52019991 27.56729564 -16.50865161 25.96622556 -16.50238609 24.36514282 C-16.43355034 8.38404405 -16.43355034 8.38404405 -13 2 C-8.77416295 -0.8172247 -4.96429984 -0.67547031 0 0 Z M-102.83203125 100.55859375 C-109.0312552 107.5397018 -111.0951485 114.1267098 -111.17700195 123.35986328 C-111.18983719 124.6253299 -111.20267242 125.89079651 -111.21589661 127.1946106 C-111.2240677 128.56984053 -111.23151072 129.94507496 -111.23828125 131.3203125 C-111.24235678 132.01911404 -111.2464323 132.71791557 -111.25063133 133.43789291 C-111.27144523 137.1399073 -111.28576464 140.84188519 -111.29516602 144.54394531 C-111.30619495 148.33982117 -111.34056672 152.13510513 -111.38033772 155.93077278 C-111.40666948 158.87359598 -111.41487257 161.8162819 -111.41844749 164.75921249 C-111.42327424 166.15686903 -111.43477446 167.55452108 -111.45348549 168.9520607 C-111.58773231 179.64734334 -110.76802259 189.10036871 -103.4375 197.375 C-90.08113541 209.42529942 -71.59345006 209.85601752 -54.61523438 209.15966797 C-38.05950503 208.14889062 -25.4158574 198.4158574 -14 187 C-13.85719295 184.5735334 -13.77902007 182.1744767 -13.74365234 179.74560547 C-13.72904968 178.98617142 -13.71444702 178.22673737 -13.69940186 177.44429016 C-13.57320697 170.42340623 -13.50461234 163.40137248 -13.45155907 156.37959099 C-13.41581477 151.66074798 -13.36257262 146.94361232 -13.26611328 142.22558594 C-13.17316863 137.66604538 -13.12461856 133.10801496 -13.10716629 128.54758072 C-13.09308846 126.81153002 -13.0634847 125.07553132 -13.01786423 123.34002304 C-12.47336974 113.86154923 -12.47336974 113.86154923 -15.94447327 105.417099 C-18.22686924 103.61333858 -20.39880788 102.28698717 -23 101 C-24.15550717 100.24442485 -25.30588146 99.48089847 -26.44921875 98.70703125 C-48.70245114 85.68795078 -82.73593622 81.16538281 -102.83203125 100.55859375 Z " fill="#000000" transform="translate(1180,0)"/>
<path d="M0 0 C1.66884877 1.6515729 3.23075287 3.33870019 4.76171875 5.1171875 C5.75171875 6.1071875 5.75171875 6.1071875 6.76171875 7.1171875 C7.41914062 6.35535156 7.41914062 6.35535156 8.08984375 5.578125 C14.55597349 -1.43999143 23.18000641 -7.27043043 32.953125 -8.05981445 C58.01312879 -8.70747312 58.01312879 -8.70747312 68.19921875 -0.7578125 C74.12767693 4.97303041 77.47437316 12.52292051 77.89593983 20.73030758 C77.90235005 22.1386403 77.90235005 22.1386403 77.90888977 23.57542419 C77.91962273 25.20086655 77.91962273 25.20086655 77.93057251 26.85914612 C77.93326141 28.03798874 77.93595032 29.21683136 77.9387207 30.43139648 C77.9452919 31.68069946 77.9518631 32.93000244 77.95863342 34.21716309 C77.97833704 38.34920494 77.99002469 42.48120809 78 46.61328125 C78.0040498 48.03866151 78.00816679 49.46404159 78.01235008 50.88942146 C78.03138008 57.58390236 78.04561864 64.27837234 78.05396205 70.97287506 C78.06374251 78.69181318 78.09009198 86.41046516 78.13046294 94.12930244 C78.16063236 100.10312307 78.17543148 106.07686166 78.17874306 112.05075699 C78.18109155 115.61575394 78.19002617 119.18044441 78.21520424 122.74535942 C78.24283652 126.72152746 78.23865126 130.69731869 78.23168945 134.67358398 C78.25090454 136.43881157 78.25090454 136.43881157 78.27050781 138.23970032 C78.23069395 144.46908223 78.05769371 148.43346467 73.76171875 153.1171875 C70.2837221 154.85618582 66.55603675 154.70697786 62.76171875 154.1171875 C59.19298729 151.4406389 57.54052678 149.45109922 56.76171875 145.1171875 C56.66968469 143.48349034 56.62857329 141.84654629 56.62368774 140.21026611 C56.61823441 139.22345856 56.61278107 138.236651 56.60716248 137.21994019 C56.60612015 136.1435025 56.60507782 135.06706482 56.60400391 133.95800781 C56.59892319 132.81935272 56.59384247 131.68069763 56.58860779 130.50753784 C56.57790486 128.03358988 56.56928437 125.55963225 56.56248856 123.08567047 C56.55069944 119.16812585 56.531246 115.25069145 56.5093689 111.33319092 C56.44754327 100.19417245 56.39348413 89.05515916 56.36035156 77.91601562 C56.3399988 71.1032117 56.30407966 64.29061612 56.25959396 57.47792816 C56.24544232 54.88327143 56.23671343 52.28857918 56.23353958 49.6938858 C56.22862484 46.06035899 56.2054507 42.42736388 56.17822266 38.79394531 C56.18122879 37.72560455 56.18423492 36.65726379 56.18733215 35.55654907 C56.10844844 28.45902021 55.38869522 22.55943252 50.94921875 16.7421875 C46.25357063 13.25399175 41.49899789 12.54345959 35.76171875 13.1171875 C27.41861308 15.21351591 21.63168563 19.97447468 15.76171875 26.1171875 C14.54446298 28.55169904 14.63170277 30.11355581 14.62368774 32.83502197 C14.61823441 33.83038467 14.61278107 34.82574738 14.60716248 35.85127258 C14.60612015 36.94739365 14.60507782 38.04351471 14.60400391 39.17285156 C14.59892319 40.32418076 14.59384247 41.47550995 14.58860779 42.66172791 C14.5778856 45.16900108 14.56927271 47.67628394 14.56248856 50.18357086 C14.55072791 54.15080441 14.53156476 58.11795898 14.5093689 62.08514404 C14.44744256 73.36743245 14.39346695 84.64971646 14.36035156 95.93212891 C14.34198808 102.16119349 14.31302882 108.39011567 14.27234685 114.61907554 C14.251302 117.91464042 14.2375105 121.20998705 14.23353958 124.50562286 C14.22863724 128.1852761 14.20549466 131.86439951 14.17822266 135.54394531 C14.18273186 137.17598152 14.18273186 137.17598152 14.18733215 138.84098816 C14.12710557 144.30629782 13.97934674 148.46606822 10.76171875 153.1171875 C7.07278759 155.57647494 4.04530454 155.81024329 -0.23828125 155.1171875 C-3.68140839 152.9927048 -4.95445672 151.96866109 -6.23828125 148.1171875 C-6.33486247 146.56409057 -6.37584537 145.00722176 -6.38304138 143.45114136 C-6.38993988 142.49239609 -6.39683838 141.53365082 -6.40394592 140.54585266 C-6.4065593 139.49544296 -6.40917267 138.44503326 -6.41186523 137.36279297 C-6.41855225 136.25515091 -6.42523926 135.14750885 -6.43212891 134.00630188 C-6.44619355 131.59673036 -6.45808308 129.1871454 -6.46807671 126.77755356 C-6.48447702 122.96063136 -6.50771666 119.14380805 -6.53297424 115.32693481 C-6.60376271 104.47288804 -6.66380829 93.6188039 -6.71508789 82.76464844 C-6.74652489 76.12809917 -6.78824259 69.49165749 -6.83528328 62.85519791 C-6.8512683 60.32835033 -6.86360596 57.8014769 -6.87219048 55.27459335 C-6.88439429 51.73226339 -6.90856748 48.19019517 -6.93530273 44.64794922 C-6.93589188 43.60968491 -6.93648102 42.57142059 -6.93708801 41.50169373 C-7.02288112 32.88855483 -7.5305582 24.96645516 -13.23828125 18.1171875 C-18.26617026 14.56087576 -23.11022972 13.23433262 -29.23828125 14.1171875 C-36.96982791 16.66536606 -43.45636286 21.54945043 -48.23828125 28.1171875 C-49.43799625 31.99843898 -49.41204108 35.60554496 -49.30419922 39.64453125 C-49.31357262 41.32193893 -49.31357262 41.32193893 -49.32313538 43.03323364 C-49.33380332 46.7083966 -49.281903 50.37991556 -49.23046875 54.0546875 C-49.22850263 56.62101271 -49.23094086 59.18734473 -49.23757935 61.75366211 C-49.24442067 67.80992972 -49.21362732 73.86484375 -49.16220963 79.92086315 C-49.06620955 91.40061311 -49.055876 102.88053336 -49.05191422 114.36062622 C-49.04310507 118.12148735 -49.01169129 121.88163538 -48.97677612 125.64233398 C-48.96693609 127.95816854 -48.95756286 130.27400514 -48.94873047 132.58984375 C-48.92536873 134.14712692 -48.92536873 134.14712692 -48.90153503 135.73587036 C-48.89860759 141.83345046 -49.31346992 147.63906619 -52.23828125 153.1171875 C-56.45982881 155.93155254 -60.27804093 155.80023699 -65.23828125 155.1171875 C-67.81465596 153.23203527 -68.83495553 151.92383893 -70.23828125 149.1171875 C-70.33871567 147.10955514 -70.37339638 145.09853008 -70.37872314 143.08839417 C-70.38443329 141.80261475 -70.39014343 140.51683533 -70.39602661 139.1920929 C-70.39727202 137.75900278 -70.39839711 136.32591256 -70.39941406 134.89282227 C-70.40404115 133.39002358 -70.40906566 131.88722607 -70.41445923 130.38442993 C-70.42759426 126.29563481 -70.43403012 122.20685611 -70.43846989 118.11804318 C-70.44139833 115.56549371 -70.44550266 113.01294874 -70.44997406 110.46040154 C-70.46365079 102.47966137 -70.47331706 94.4989315 -70.47717595 86.51818043 C-70.48165979 77.29485332 -70.499222 68.07167417 -70.52817655 58.84839207 C-70.54976358 51.72564308 -70.5598786 44.60293582 -70.56121707 37.48015445 C-70.56226708 33.22278629 -70.56821645 28.96555717 -70.58603668 24.70822334 C-70.60246644 20.70518953 -70.60469789 16.70240007 -70.59589767 12.69934464 C-70.5951246 11.2283316 -70.59950548 9.75730571 -70.60935593 8.28632545 C-70.62199379 6.28191128 -70.61443683 4.27739977 -70.60577393 2.27296448 C-70.60724049 1.15005288 -70.60870705 0.02714128 -70.61021805 -1.12979794 C-70.23828125 -3.8828125 -70.23828125 -3.8828125 -68.92625046 -5.70895481 C-66.08081195 -7.68774676 -63.65363413 -7.82392711 -60.23828125 -7.8828125 C-54.88627396 -5.14457621 -53.28235294 -0.22708931 -51.23828125 5.1171875 C-50.59761719 4.43011719 -49.95695312 3.74304688 -49.296875 3.03515625 C-35.54996626 -11.28539398 -15.94703326 -13.41443287 0 0 Z " fill="#000000" transform="translate(1816.23828125,74.8828125)"/>
<path d="M0 0 C1.31532715 0.00491455 2.6306543 0.0098291 3.98583984 0.01489258 C20.67027065 0.21550079 39.23100084 1.88912242 51.984375 13.953125 C60.88678591 23.31206981 64.55352411 35.25659199 64.53710938 47.95654297 C64.54394241 48.78045532 64.55077545 49.60436768 64.55781555 50.45324707 C64.57132367 52.22864975 64.58042796 54.00409045 64.58552551 55.7795372 C64.5938768 58.5974729 64.61443928 61.41509408 64.63806152 64.23294067 C64.68609815 70.21774656 64.71914125 76.20258411 64.75 82.1875 C64.78579549 89.12096188 64.82789486 96.05426881 64.88594055 102.98758316 C64.90585071 105.74930212 64.91429621 108.5108992 64.92224121 111.27267456 C64.44191493 125.4135273 64.44191493 125.4135273 69.3125 138.1875 C71.88598292 140.04916849 73.97709841 141.11564308 76.875 142.3125 C79.77623964 143.52899316 81.14999661 144.2034054 83.3125 146.5625 C84.57893377 150.2773724 85.06180784 153.44080108 84.25 157.3125 C82.25 160.3125 82.25 160.3125 79.25 162.3125 C73.37192695 162.74260291 68.72982161 161.87611081 63.1875 160 C62.51912109 159.78666016 61.85074219 159.57332031 61.16210938 159.35351562 C48.09155857 155.09828286 48.09155857 155.09828286 45.25 150.3125 C44.59 149.3225 43.93 148.3325 43.25 147.3125 C42.75709473 147.62477539 42.26418945 147.93705078 41.75634766 148.25878906 C18.11099727 163.16887932 -3.27646642 167.82181356 -31.203125 161.53515625 C-43.14355596 158.23880505 -54.3948932 151.87709313 -60.6953125 140.93359375 C-67.02891869 128.87538196 -69.30948124 115.17139042 -65.5625 101.75 C-65.00597586 100.25225761 -64.40260144 98.77094532 -63.75 97.3125 C-63.42128906 96.5596875 -63.09257813 95.806875 -62.75390625 95.03125 C-56.48104519 82.35529546 -44.57077713 74.19173402 -31.5625 69.5 C-7.50336274 61.80916524 17.88941703 65.98488477 41.25 74.3125 C41.37501994 70.22338629 41.46499365 66.13503535 41.5246582 62.04443359 C41.54956805 60.65751736 41.58351002 59.27072913 41.62719727 57.88427734 C41.89681361 49.0979564 41.59481565 41.66390173 36.25 34.3125 C28.11284738 25.97685364 15.75115256 23.27021282 4.43359375 23.109375 C-19.58341404 22.44747694 -19.58341404 22.44747694 -40.125 33.5625 C-42.84020015 38.1574541 -44.25108133 43.03694412 -45.390625 48.234375 C-47.10580065 55.77317031 -47.10580065 55.77317031 -50.4375 58.5625 C-54.54785062 59.49314542 -57.72749097 59.63678281 -61.75 58.3125 C-64.69078126 56.31026595 -66.29044994 54.81813112 -67.34375 51.3671875 C-69.02889532 40.68183423 -65.68122246 31.10137781 -59.75 22.3125 C-49.04041038 8.14225904 -35.48199425 3.24463029 -18.3293457 0.71826172 C-12.22013603 0.02570961 -6.14291678 -0.02721595 0 0 Z M-38.75 99.3125 C-42.26046888 103.65241141 -44.39679568 107.66123092 -44.75 113.3125 C-44.8325 114.59125 -44.915 115.87 -45 117.1875 C-44.84585887 124.55824849 -41.87253282 130.13981141 -36.90234375 135.48828125 C-24.99699774 145.57865618 -8.41774898 145.30470603 6.25 144.3125 C16.73834154 143.13462645 25.19127847 137.90219351 33.41113281 131.62255859 C35.25 130.3125 35.25 130.3125 37.45605469 129.17822266 C39.96424781 127.75107075 41.51147182 126.63107968 43.25 124.3125 C44.2342596 119.34103894 44.00635121 114.47020633 43.75 109.4375 C43.7098294 108.06781217 43.6733348 106.69801131 43.640625 105.328125 C43.54650025 101.98669647 43.41511754 98.65104961 43.25 95.3125 C37.2895205 92.89515606 31.5069677 91.35054232 25.1875 90.1875 C23.79942139 89.93202393 23.79942139 89.93202393 22.38330078 89.67138672 C2.72454208 86.18535619 -23.38940575 84.1033909 -38.75 99.3125 Z " fill="#000000" transform="translate(1640.75,64.6875)"/>
<path d="M0 0 C4.20708442 3.0050603 5.41234736 5.84383731 6.6484375 10.6953125 C7.03394775 12.18442139 7.03394775 12.18442139 7.42724609 13.70361328 C7.61625488 14.4614209 7.80526367 15.21922852 8 16 C8.53141602 15.75878418 9.06283203 15.51756836 9.61035156 15.26904297 C19.53430456 10.80007656 29.43232539 6.60836124 39.875 3.5 C41.09364746 3.13624268 41.09364746 3.13624268 42.33691406 2.76513672 C61.97608118 -2.86301142 85.39848094 -1.08713103 103.66015625 8.37890625 C105.91343324 9.79734992 107.94869467 11.3040389 110 13 C110.69609375 13.56203125 111.3921875 14.1240625 112.109375 14.703125 C120.23040756 21.96931203 124.47086093 32.33028234 126 43 C126.3147772 48.82781307 126.33073293 54.64922142 126.3359375 60.484375 C126.34237777 62.18914904 126.34910701 63.89392202 126.35610962 65.59869385 C126.36803991 69.16250161 126.37179488 72.72621276 126.37060547 76.29003906 C126.37040262 80.82321543 126.39768812 85.35576251 126.43214989 89.88879013 C126.45455202 93.40817018 126.45843895 96.92740201 126.45738602 100.44684601 C126.45972264 102.11635758 126.46843475 103.78587447 126.48405075 105.45531464 C126.61902431 121.37544253 123.9485248 134.89280167 113.0390625 147.21484375 C99.7269753 160.10628879 82.54032127 163.58052723 64.625 163.375 C63.35076172 163.36557373 62.07652344 163.35614746 60.76367188 163.34643555 C41.3522424 163.03490941 24.24090838 157.82727225 8 147 C8.00666183 147.87616974 8.01332367 148.75233948 8.02018738 149.65505981 C8.0803696 157.92363432 8.12601055 166.19213495 8.15543652 174.46087837 C8.17107344 178.71164439 8.19227545 182.962229 8.22631836 187.21289062 C8.25898252 191.31721651 8.27686786 195.42136819 8.28463173 199.52581406 C8.2901626 201.08947363 8.30096312 202.65312398 8.31719017 204.21670914 C8.33905886 206.41177002 8.34196308 208.60611674 8.34057617 210.80126953 C8.34723801 212.04925323 8.35389984 213.29723694 8.36076355 214.58303833 C7.86248675 219.30245278 6.35658191 222.64341809 3 226 C-0.38289437 226.5598867 -3.61612009 226.54666881 -7 226 C-9.87411615 223.40628543 -10.78516202 221.64451394 -12 218 C-12.10035115 215.21485206 -12.14342828 212.45460913 -12.14044189 209.66923523 C-12.14341302 208.8092758 -12.14638414 207.94931637 -12.1494453 207.06329757 C-12.15814339 204.17068797 -12.15964148 201.2781197 -12.16113281 198.38549805 C-12.16576019 196.31599845 -12.17078474 194.2464997 -12.17617798 192.17700195 C-12.18931143 186.54679133 -12.19574874 180.91659264 -12.20018864 175.28636909 C-12.20311773 171.77044307 -12.20722222 168.25452033 -12.21169281 164.73859596 C-12.22537 153.74271652 -12.23503567 142.74684455 -12.2388947 131.75095719 C-12.24337667 119.04913648 -12.26093015 106.34742331 -12.2898953 93.64563531 C-12.31149633 83.83324578 -12.32159813 74.02088656 -12.32293582 64.2084735 C-12.32398494 58.34528174 -12.32991565 52.48219105 -12.34775543 46.61902428 C-12.36420887 41.10411917 -12.36640484 35.58939139 -12.35761642 30.07447052 C-12.3568446 28.04999886 -12.36120786 26.02551778 -12.37107468 24.00107002 C-12.38375313 21.23773973 -12.37793966 18.47504139 -12.36749268 15.7117157 C-12.37554908 14.91024902 -12.38360548 14.10878233 -12.39190602 13.28302878 C-12.34926777 8.46205773 -11.62790066 5.19575751 -9 1 C-5.87970034 -1.39222974 -3.64286009 -1.33275369 0 0 Z M19 33 C17.57993401 34.06567451 17.57993401 34.06567451 16.13117981 35.15287781 C10.91365968 39.6232508 7.52201117 43.14483822 6.72205639 50.15327168 C6.49178988 54.15719694 6.50636316 58.13599556 6.57421875 62.14453125 C6.56933849 63.88564801 6.56104318 65.6267582 6.54951477 67.36784363 C6.53787376 70.99726846 6.56506084 74.62368855 6.62084961 78.25268555 C6.68939381 82.895917 6.66326881 87.53295615 6.60875225 92.17618275 C6.5764612 95.76351111 6.59235315 99.34938647 6.62290382 102.93668175 C6.63205838 104.64822531 6.62676089 106.35991173 6.60648155 108.07135963 C6.20059952 117.39631555 6.20059952 117.39631555 10.18092346 125.33601379 C12.75005864 126.90104092 15.17663574 127.98102012 18 129 C19.30522697 129.69758566 20.60134119 130.41311494 21.87890625 131.16015625 C40.67064984 141.02450287 60.9799141 146.16754747 81.9375 140.375 C90.09870928 137.54564459 97.09369679 133.12967228 102.0625 125.96875 C104.51532974 120.81780754 105.25225684 115.77301589 105.2746582 110.12182617 C105.2823246 109.14952309 105.2823246 109.14952309 105.29014587 108.15757751 C105.30393168 106.03594466 105.30309316 103.9146408 105.30078125 101.79296875 C105.30467498 100.30235171 105.30901103 98.81173576 105.31376648 97.32112122 C105.3212056 94.20354612 105.3209548 91.0860843 105.31567383 87.96850586 C105.30989021 83.99779736 105.3267943 80.027557 105.3500185 76.05692577 C105.36484217 72.97944992 105.36561576 69.90208448 105.36250877 66.82457924 C105.36301792 65.36193225 105.36817829 63.8992784 105.37832069 62.43666649 C105.44674712 51.1877254 105.09915545 41.15637735 96.92578125 32.74609375 C83.45879685 20.53566368 65.22837613 20.98314574 48.0703125 21.77685547 C36.93767188 22.58595483 27.83434232 26.22082777 19 33 Z " fill="#000000" transform="translate(1937,66)"/>
<path d="M0 0 C2.0276983 -0.0095929 4.05433083 -0.04061367 6.08178711 -0.07226562 C25.15801134 -0.22730023 42.4399919 4.01407757 56.50561523 17.52539062 C68.21757722 29.70042854 72.01046222 45.72174226 73.00170898 62.17773438 C73.05101562 62.94601563 73.10032227 63.71429688 73.15112305 64.50585938 C73.42834428 71.26422129 73.0451929 77.81688627 68.75170898 83.24023438 C65.03775316 86.069915 62.09441485 86.36577321 57.50762939 86.36048889 C56.58498795 86.36186356 55.6623465 86.36323822 54.71174622 86.36465454 C53.70689682 86.36105927 52.70204742 86.35746399 51.66674805 86.35375977 C50.60302475 86.35390579 49.53930145 86.35405182 48.44334412 86.35420227 C44.92632002 86.35350544 41.40934884 86.34572371 37.89233398 86.33789062 C35.45424427 86.33602563 33.01615419 86.33460211 30.57806396 86.33360291 C24.15996263 86.32978414 17.7418839 86.31995928 11.3237915 86.30889893 C4.77502753 86.29867107 -1.7737401 86.29410233 -8.32250977 86.2890625 C-21.17277983 86.27833647 -34.02303422 86.26145982 -46.87329102 86.24023438 C-46.82863258 90.18788594 -46.75829014 94.13422794 -46.66577148 98.08105469 C-46.62420675 100.0713844 -46.60204558 102.06208923 -46.58032227 104.05273438 C-46.34954725 113.19142519 -44.89849189 120.12066367 -40.24829102 127.99023438 C-29.97371742 137.72404094 -15.66619607 140.76102468 -1.87329102 141.24023438 C-1.04055664 141.28019531 -0.20782227 141.32015625 0.65014648 141.36132812 C22.68068809 141.92366928 41.68459236 135.77060024 58.72583008 121.52880859 C61.803927 119.00821659 64.11555846 117.52039991 68.12670898 117.24023438 C71.2232465 118.17639688 72.83094221 118.9444676 75.12670898 121.24023438 C75.98721447 126.62065812 75.89512076 131.74100738 73.06420898 136.49023438 C72.1231849 137.76919529 71.14322573 139.02041428 70.12670898 140.24023438 C69.66522461 140.82289063 69.20374023 141.40554687 68.72827148 142.00585938 C56.89556012 155.34018385 37.16598724 160.27416381 20.12670898 162.24023438 C14.43647996 162.56028326 8.76241598 162.63168096 3.06420898 162.61523438 C1.90409805 162.61342163 1.90409805 162.61342163 0.72055054 162.61157227 C-19.33912665 162.5265154 -39.82965223 160.26878356 -55.06079102 145.74023438 C-56.37030295 144.27387976 -57.64582799 142.77592701 -58.87329102 141.24023438 C-59.37086914 140.62792969 -59.86844727 140.015625 -60.38110352 139.38476562 C-69.36505091 126.76958201 -69.02720012 109.73176132 -69.04125977 94.93554688 C-69.04458817 93.69457245 -69.04791656 92.45359802 -69.05134583 91.17501831 C-69.05638089 88.56476204 -69.05875522 85.9544994 -69.05859375 83.34423828 C-69.06078083 79.38367981 -69.07897528 75.4234 -69.09790039 71.46289062 C-69.10083504 68.91211032 -69.10281936 66.3613287 -69.10375977 63.81054688 C-69.11094528 62.64347198 -69.1181308 61.47639709 -69.12553406 60.2739563 C-69.08268552 44.60990638 -66.83956391 30.7152912 -55.70532227 18.97460938 C-40.43558237 4.5188215 -20.45214492 0.05820603 0 0 Z M-40.87329102 35.24023438 C-48.16625945 44.70138262 -46.87329102 51.57623962 -46.87329102 64.24023438 C-14.53329102 64.24023438 17.80670898 64.24023438 51.12670898 64.24023438 C51.12670898 52.97872692 49.28661918 43.22125217 42.12670898 34.24023438 C29.77391159 22.32207245 15.0573892 19.9910757 -1.50268555 19.91870117 C-15.72118252 20.19130773 -30.87029085 24.7570902 -40.87329102 35.24023438 Z " fill="#000000" transform="translate(1290.873291015625,66.759765625)"/>
<path d="M0 0 C1.94676636 -0.02090698 1.94676636 -0.02090698 3.93286133 -0.04223633 C21.89428105 0.04532488 38.66037421 4.34832816 52.375 16.375 C65.43127378 29.78775907 69.50972757 47.63313839 69.625 65.875 C69.6559375 67.09896484 69.6559375 67.09896484 69.6875 68.34765625 C69.72251165 73.80071998 68.94133282 77.54205207 66.375 82.375 C62.62627407 86.00279928 58.82145723 86.50109039 53.75592041 86.49525452 C52.83327896 86.49662918 51.91063751 86.49800385 50.96003723 86.49942017 C49.95518784 86.49582489 48.95033844 86.49222961 47.91503906 86.48852539 C46.85131577 86.48867142 45.78759247 86.48881744 44.69163513 86.4889679 C41.17461103 86.48827106 37.65763985 86.48048933 34.140625 86.47265625 C31.70253529 86.47079126 29.2644452 86.46936774 26.82635498 86.46836853 C20.40825364 86.46454976 13.99017492 86.4547249 7.57208252 86.44366455 C1.02331854 86.4334367 -5.52544909 86.42886796 -12.07421875 86.42382812 C-24.92448882 86.41310209 -37.77474321 86.39622544 -50.625 86.375 C-50.57249106 90.64678321 -50.47726939 94.91664126 -50.375 99.1875 C-50.36082031 100.38310547 -50.34664062 101.57871094 -50.33203125 102.81054688 C-50.04387578 113.38585269 -48.20848934 122.82335184 -40.66015625 130.66015625 C-31.05260319 138.75558004 -17.80721281 140.80920782 -5.625 141.375 C-4.78839844 141.41625 -3.95179688 141.4575 -3.08984375 141.5 C20.15801448 142.06103429 39.75423241 135.35546818 57.2265625 119.90625 C59.69598147 118.14622775 61.364056 117.62352236 64.375 117.375 C68.125 118.625 68.125 118.625 71.375 120.375 C73.01500513 125.29501539 73.01806018 129.6244473 71.25 134.4375 C66.48968708 141.89532357 60.8787268 146.69501447 53.375 151.375 C52.64925781 151.82875 51.92351562 152.2825 51.17578125 152.75 C38.96425642 159.56969973 23.28047734 162.46250642 9.44921875 162.61328125 C8.33754585 162.62783607 8.33754585 162.62783607 7.20341492 162.64268494 C4.82305441 162.66748766 2.44297655 162.68018965 0.0625 162.6875 C-1.15128326 162.69142761 -1.15128326 162.69142761 -2.3895874 162.69543457 C-14.25455159 162.69955998 -25.28457991 162.16831125 -36.625 158.375 C-37.58019531 158.08625 -38.53539062 157.7975 -39.51953125 157.5 C-51.02943816 153.53960192 -60.56488987 145.31803555 -66.3125 134.6875 C-71.40739562 123.58926992 -72.0892497 112.69153774 -72.05859375 100.69140625 C-72.06316896 99.10302002 -72.06847844 97.51463576 -72.07447815 95.92625427 C-72.08335372 92.61571146 -72.08104996 89.30541061 -72.07104492 85.99487305 C-72.05955889 81.78793741 -72.07978918 77.5818417 -72.10896206 73.37501621 C-72.12745591 70.10010118 -72.12700568 66.82538263 -72.12132454 63.55042839 C-72.12117295 62.00094359 -72.12708038 60.45144406 -72.13961601 58.90200996 C-72.25414804 42.43111674 -68.67049254 29.89377497 -57.3125 17.625 C-41.60832227 2.75837842 -20.58707889 0.13133849 0 0 Z M-44.19140625 35.5078125 C-51.37120348 44.85915604 -50.625 51.97644845 -50.625 64.375 C-17.955 64.375 14.715 64.375 48.375 64.375 C47.16218152 49.8211782 44.67422248 39.97523313 34.0625 30.125 C13.65655984 13.8267491 -26.51794612 16.43573323 -44.19140625 35.5078125 Z " fill="#000000" transform="translate(594.625,66.625)"/>
<path d="M0 0 C1.30710937 -0.01611328 2.61421875 -0.03222656 3.9609375 -0.04882812 C21.82269713 -0.05768812 39.09582501 4.09461428 52.625 16.3125 C66.3267573 31.72113151 70.00441195 50.74703539 69.84375 70.76953125 C69.51201616 76.14243462 68.61652293 80.32097707 64.6875 84.25 C61.15213892 86.07124662 57.95095342 86.43729949 54.00592041 86.43275452 C53.08327896 86.43412918 52.16063751 86.43550385 51.21003723 86.43692017 C50.20518784 86.43332489 49.20033844 86.42972961 48.16503906 86.42602539 C47.10131577 86.42617142 46.03759247 86.42631744 44.94163513 86.4264679 C41.42461103 86.42577106 37.90763985 86.41798933 34.390625 86.41015625 C31.95253529 86.40829126 29.5144452 86.40686774 27.07635498 86.40586853 C20.65825364 86.40204976 14.24017492 86.3922249 7.82208252 86.38116455 C1.27331854 86.3709367 -5.27544909 86.36636796 -11.82421875 86.36132812 C-24.67448882 86.35060209 -37.52474321 86.33372544 -50.375 86.3125 C-50.2932358 90.60489483 -50.18047284 94.89595974 -50.0625 99.1875 C-50.03994141 100.39148438 -50.01738281 101.59546875 -49.99414062 102.8359375 C-49.66907425 113.71088535 -48.41068919 122.34326362 -40.66796875 130.33984375 C-31.01921031 138.64073475 -17.72152264 140.7390766 -5.375 141.3125 C-4.53839844 141.35375 -3.70179688 141.395 -2.83984375 141.4375 C20.40801448 141.99853429 40.00423241 135.29296818 57.4765625 119.84375 C59.92077896 118.10169027 61.65611329 117.61326957 64.625 117.3125 C67.83060918 118.07574028 69.28109501 118.93420451 71.5 121.375 C73.10989023 125.57860228 72.75598966 128.99487056 71.625 133.3125 C69.8125 136.5625 69.8125 136.5625 67.625 139.3125 C67.05394531 140.10140625 66.48289062 140.8903125 65.89453125 141.703125 C63.29808068 144.68837281 60.44901134 146.73533433 57.125 148.8125 C56.50189941 149.20268311 55.87879883 149.59286621 55.23681641 149.99487305 C31.71274497 164.39400213 -2.14727057 166.78281525 -28.875 160.625 C-31.42896059 159.95309566 -33.86947616 159.16722719 -36.375 158.3125 C-37.50035156 157.93867188 -38.62570312 157.56484375 -39.78515625 157.1796875 C-53.30567016 152.11996606 -61.61557969 143.26298314 -68.078125 130.66796875 C-71.86265331 120.8760717 -71.68619967 110.83815047 -71.67578125 100.5 C-71.67967718 98.87914929 -71.68401367 97.25829959 -71.68876648 95.63745117 C-71.69618959 92.25533728 -71.69596537 88.87332786 -71.69067383 85.49121094 C-71.68487526 81.18093988 -71.70183849 76.87109799 -71.7250185 72.56089783 C-71.73982524 69.21835884 -71.74061831 65.87592169 -71.73750877 62.53335571 C-71.7380182 60.94511056 -71.74318391 59.35685913 -71.75332069 57.76864624 C-71.84276649 41.80176885 -68.92707872 29.91460139 -57.625 18.0625 C-41.76722078 3.00585673 -21.1043242 -0.05172628 0 0 Z M-43.68359375 35.2578125 C-51.37576942 44.60211828 -50.375 51.47688918 -50.375 64.3125 C-17.705 64.3125 14.965 64.3125 48.625 64.3125 C47.47399125 51.65140377 45.86056056 41.49330427 36.625 32.3125 C15.51759541 14.77530697 -24.44993649 14.66419968 -43.68359375 35.2578125 Z " fill="#000000" transform="translate(419.375,66.6875)"/>
<path d="M0 0 C0.7317746 0.0012085 1.46354919 0.00241699 2.21749878 0.00366211 C21.66219765 0.0908855 40.86208063 3.33413047 55.5 17.25 C65.33036418 28.03861817 69.93505902 39.89118655 70.125 54.4375 C70.16367187 56.21833984 70.16367187 56.21833984 70.203125 58.03515625 C69.75161028 62.63093112 68.0920512 65.1579488 64.875 68.375 C62.66796875 68.78125 62.66796875 68.78125 60.0625 68.875 C59.21042969 68.9265625 58.35835937 68.978125 57.48046875 69.03125 C54.34783738 68.24222141 52.95079023 66.86101208 51.0246582 64.30517578 C48.83552855 60.62981816 47.64401723 56.62760542 46.375 52.5625 C42.91685393 41.63376566 39.18417313 31.96093708 28.73046875 26.19140625 C12.85760181 19.00518291 -7.52764867 19.84008184 -23.875 25 C-33.1089016 28.68280792 -38.85464145 34.953246 -42.80955505 43.99337769 C-47.7777122 56.76504945 -47.58462169 69.69484386 -47.55859375 83.1796875 C-47.56316687 85.27369351 -47.56847576 87.36769804 -47.57447815 89.46170044 C-47.58336371 93.83048638 -47.58103853 98.19908908 -47.57104492 102.56787109 C-47.55956392 108.1240644 -47.57977737 113.67962129 -47.60896206 119.23573112 C-47.62744309 123.5547375 -47.62700799 127.87359471 -47.62132454 132.19263077 C-47.62117276 134.23923764 -47.62709607 136.28585558 -47.63961601 138.33242416 C-47.72524976 154.62156851 -47.25379415 173.06546592 -35.7109375 185.9375 C-24.35489417 196.23066243 -8.91243195 198.67796534 5.875 198.375 C19.43256081 197.69777003 31.96601728 194.61428827 41.55859375 184.62109375 C46.00177473 178.95908507 47.22776558 172.69060159 48.49511719 165.75878906 C49.30503409 161.40244621 50.15341084 158.00378554 52.875 154.375 C56.34763273 152.63868364 60.08693013 152.77309598 63.875 153.375 C66.63069447 155.55659145 68.31088747 157.24677494 69.875 160.375 C70.89753562 174.82814774 68.2486234 187.39648098 58.6875 198.4375 C44.62827281 213.31703866 27.3859931 218.83564824 7.28125 219.65625 C-15.49736535 220.20026786 -35.74678762 216.50625271 -54.125 202.375 C-55.00027344 201.71242187 -55.87554688 201.04984375 -56.77734375 200.3671875 C-66.61502557 192.01907148 -70.69863814 178.81512821 -72.125 166.375 C-72.27170868 162.8592502 -72.28207351 159.34685357 -72.28613281 155.82836914 C-72.29109772 154.78990845 -72.29606262 153.75144775 -72.30117798 152.68151855 C-72.31573918 149.25772426 -72.32259323 145.83397638 -72.328125 142.41015625 C-72.33095238 141.23399687 -72.33377975 140.05783749 -72.33669281 138.84603691 C-72.35166484 132.61602429 -72.36090553 126.38603469 -72.36523438 120.15600586 C-72.3707013 113.75788421 -72.39469758 107.35997726 -72.42320633 100.96192265 C-72.44194678 96.01071077 -72.44704445 91.05954931 -72.44857025 86.10830498 C-72.45157402 83.75188466 -72.45952436 81.39546475 -72.47275543 79.03907967 C-72.59160862 56.23557138 -71.18203012 34.46382424 -55 16.75 C-40.03801701 2.5772205 -19.66786818 -0.05995032 0 0 Z " fill="#000000" transform="translate(772.125,8.625)"/>
<path d="M0 0 C2.10222098 -0.00963107 4.20343054 -0.04068273 6.30541992 -0.07226562 C25.81442506 -0.22529487 44.01401554 4.65279405 58.59643555 18.11132812 C68.34924154 28.37631649 72.1549997 41.67461171 72.69799805 55.52929688 C72.50188343 59.9389044 71.94222249 62.62637421 69.6315918 66.42773438 C65.27618498 69.00542412 61.50726192 69.26134752 56.5690918 68.24023438 C51.84870435 64.36709596 50.45688268 58.11651615 48.70581055 52.44335938 C45.60986821 42.6076907 42.51941486 32.89453333 33.19018555 27.45117188 C25.38660772 23.84594218 17.16187888 21.59336261 8.5690918 21.24023438 C7.6925293 21.18867188 6.8159668 21.13710938 5.9128418 21.08398438 C-6.37230501 20.68768932 -18.8959249 22.6480468 -29.4309082 29.24023438 C-30.3384082 29.79710938 -31.2459082 30.35398437 -32.1809082 30.92773438 C-46.72826795 45.87918745 -45.59008691 68.50465826 -45.59887695 87.87695312 C-45.60210075 89.5678561 -45.6054656 91.25875882 -45.60896301 92.94966125 C-45.61491523 96.47873581 -45.616807 100.00778602 -45.61621094 103.53686523 C-45.61610961 108.00995447 -45.62974968 112.48288395 -45.64698315 116.95593548 C-45.65822317 120.44542628 -45.6601265 123.93487994 -45.65960121 127.42438698 C-45.66076382 129.07103843 -45.66508594 130.71769141 -45.67293358 132.36432457 C-45.70938513 140.80266407 -45.49605725 149.11560636 -44.52978516 157.50512695 C-44.45063716 158.1947008 -44.37148916 158.88427465 -44.28994274 159.59474468 C-42.79811196 171.2755048 -38.06472959 182.08733481 -28.84106445 189.63867188 C-15.1566177 198.73206437 2.7223063 199.56711395 18.5690918 197.24023438 C28.30110877 195.20966218 38.51076441 191.65153187 44.8815918 183.61523438 C48.26591915 178.08242955 49.40930888 171.63145107 50.65820312 165.33544922 C51.80079693 159.94133158 52.93810522 156.67343194 57.5690918 153.24023438 C60.34273304 152.39448392 62.74677151 152.63463529 65.5690918 153.24023438 C69.05273597 155.13351925 70.26808635 156.59717727 71.9440918 160.17773438 C74.28803098 170.72546069 71.2214958 182.63482289 66.1003418 191.89648438 C56.52590239 206.52911819 42.78606754 214.08894639 26.0690918 217.67773438 C1.59400667 222.3430316 -25.9167015 220.26036547 -46.93481445 206.04492188 C-59.79902621 196.74403638 -66.66989541 184.92839312 -69.4309082 169.24023438 C-69.52276564 167.61185655 -69.56966904 165.98049328 -69.57807922 164.34954834 C-69.58881218 162.91202713 -69.58881218 162.91202713 -69.59976196 161.44546509 C-69.60245087 160.40546356 -69.60513977 159.36546204 -69.60791016 158.29394531 C-69.61776695 156.6366893 -69.61776695 156.6366893 -69.62782288 154.94595337 C-69.64753198 151.28883795 -69.65921752 147.6317637 -69.66918945 143.97460938 C-69.67326498 142.72063606 -69.67734051 141.46666275 -69.68153954 140.17469025 C-69.70024817 134.2132802 -69.71481041 128.25188308 -69.7231515 122.29045081 C-69.73288121 115.45228236 -69.75909009 108.61444131 -69.7996524 101.77638793 C-69.83373856 95.82145523 -69.84532033 89.86660024 -69.8493557 83.91156769 C-69.85419368 81.39687135 -69.86572682 78.88217779 -69.88439369 76.36754608 C-70.02991813 55.45218886 -69.34233701 34.03313712 -54.1418457 17.78710938 C-38.77871614 3.89715662 -20.11216066 0.05547545 0 0 Z " fill="#000000" transform="translate(1469.430908203125,8.759765625)"/>
<path d="M0 0 C10.20619493 9.29596502 14.07239734 21.57958945 15 35 C15.14805402 39.84005411 15.16384769 44.67743803 15.16796875 49.51953125 C15.17119237 50.90899182 15.17455721 52.29845208 15.17805481 53.68791199 C15.18400553 56.58662705 15.1858989 59.48531248 15.18530273 62.3840332 C15.1852013 66.06167611 15.19885297 69.73912519 15.21607494 73.4167223 C15.22730236 76.2832676 15.22921869 79.1497676 15.22869301 82.01633263 C15.23041501 84.0195141 15.24118336 86.02268144 15.25224304 88.02583313 C15.21187328 104.40228051 13.37750921 119.57593884 1.49609375 131.75 C-17.7884043 149.13320951 -45.48017884 149.17897882 -70 148 C-87.16153604 146.58720688 -104.93118631 142.11274061 -117 129 C-123.96433576 119.49888131 -127.09978926 109.35105082 -127.16113281 97.64624023 C-127.16609772 96.92351425 -127.17106262 96.20078827 -127.17617798 95.4561615 C-127.1907372 93.07362905 -127.19759319 90.69116331 -127.203125 88.30859375 C-127.20595238 87.48968218 -127.20877975 86.67077061 -127.21169281 85.82704353 C-127.22666477 81.4884522 -127.23590522 77.1498939 -127.24023438 72.8112793 C-127.24569825 68.35872583 -127.26968765 63.90648137 -127.29820633 59.45402431 C-127.31696172 56.00589661 -127.32204524 52.5578412 -127.32357025 49.10966682 C-127.32657121 47.47003565 -127.33451177 45.83040495 -127.34775543 44.19082451 C-127.47347995 27.42120445 -125.23522711 13.86332746 -113.48828125 1.328125 C-87.27072345 -23.20196048 -27.44105077 -21.41740548 0 0 Z M-100.4375 19.3125 C-106.79848397 27.83791486 -106.4468763 37.45131417 -106.3984375 47.65625 C-106.40046287 49.16882466 -106.40337815 50.68139837 -106.40713501 52.19396973 C-106.41153662 55.35092545 -106.4051977 58.50762504 -106.39111328 61.66455078 C-106.37402246 65.68913416 -106.38387535 69.71311712 -106.40183067 73.73767853 C-106.41272743 76.85716181 -106.40919535 79.97650529 -106.4014473 83.09599304 C-106.39946152 84.57899549 -106.4018468 86.06201109 -106.40888596 87.54499817 C-106.44784619 98.05719877 -106.25808235 107.42366607 -98.7265625 115.4375 C-84.96303465 127.89318131 -64.54476831 127.84387588 -47 127 C-34.61811764 126.25357447 -22.83752382 123.68941982 -13.62109375 114.89453125 C-8.16093178 108.51337811 -6.89363358 101.67924112 -6.82299805 93.45654297 C-6.81016281 92.15103485 -6.79732758 90.84552673 -6.78410339 89.50045776 C-6.77593251 88.08103825 -6.76848945 86.66161438 -6.76171875 85.2421875 C-6.75764322 84.52132084 -6.7535677 83.80045418 -6.74936867 83.05774307 C-6.72855247 79.23901919 -6.71423391 75.42033073 -6.70483398 71.6015625 C-6.69380321 67.68462668 -6.65942984 63.76826418 -6.61966228 59.85153008 C-6.59333976 56.81606085 -6.58512823 53.78072479 -6.58155251 50.74515152 C-6.57672359 49.30283886 -6.56521693 47.86053063 -6.54651451 46.41833115 C-6.42481079 36.40807892 -7.45027327 27.91621122 -12.6875 19.1875 C-27.77029128 4.91999474 -48.21503303 5.27893878 -67.74902344 5.82080078 C-79.95345833 6.49352947 -91.8401049 10.27582193 -100.4375 19.3125 Z " fill="#000000" transform="translate(1000,81)"/>
<path d="M0 0 C1.23411621 0.00684814 2.46823242 0.01369629 3.73974609 0.02075195 C12.81892338 0.18046604 20.74857045 1.04804116 29.25 4.4375 C30.18457031 4.79972656 31.11914062 5.16195313 32.08203125 5.53515625 C40.94617888 9.45558137 47.26988644 15.84375017 51.27734375 24.66015625 C54.02653882 32.51026748 55.52147374 40.61441062 52.25 48.4375 C49.48703368 51.5951758 47.96604245 52.33334837 43.8125 52.9375 C39.43151503 52.32262492 37.52790531 51.42403594 34.25 48.4375 C32.61369251 45.56027531 31.46668811 42.51099944 30.25 39.4375 C26.91282093 30.68670986 26.91282093 30.68670986 20.125 24.75 C10.29437453 20.9006587 -3.80830358 20.40718405 -13.6875 24.125 C-20.14552802 27.37103869 -23.59335744 32.12421489 -26.75 38.4375 C-27.71667794 42.23976656 -27.93657074 45.91841799 -28.06640625 49.83203125 C-28.12924805 51.63510742 -28.12924805 51.63510742 -28.19335938 53.47460938 C-28.23267578 54.72048828 -28.27199219 55.96636719 -28.3125 57.25 C-28.37727539 59.14782227 -28.37727539 59.14782227 -28.44335938 61.08398438 C-28.5492447 64.20171889 -28.65132405 67.31953035 -28.75 70.4375 C-28.18703217 70.42861755 -27.62406433 70.41973511 -27.04403687 70.4105835 C-21.17155129 70.3219193 -15.29925664 70.2616869 -9.42626953 70.21777344 C-7.23608676 70.19768893 -5.04595741 70.17041583 -2.85595703 70.13574219 C0.29668376 70.08708591 3.44861404 70.06449922 6.6015625 70.046875 C7.57678864 70.02622986 8.55201477 70.00558472 9.55679321 69.98431396 C15.43762133 69.98238378 18.77265469 70.5137804 23.25 74.4375 C24.8520886 77.64167721 24.74285215 80.96089432 24.25 84.4375 C22.1255173 87.88062714 21.10147359 89.15367547 17.25 90.4375 C15.73092376 90.52419529 14.20830999 90.555194 12.68676758 90.55102539 C11.76603958 90.55094986 10.84531158 90.55087433 9.89668274 90.55079651 C8.90597275 90.54563522 7.91526276 90.54047394 6.89453125 90.53515625 C5.87775803 90.5337413 4.8609848 90.53232635 3.81340027 90.53086853 C0.56307036 90.52526707 -2.68719088 90.51271432 -5.9375 90.5 C-8.13997296 90.49498519 -10.34244701 90.49042225 -12.54492188 90.48632812 C-17.94663804 90.47529717 -23.34831412 90.45855762 -28.75 90.4375 C-28.74723462 91.10103265 -28.74446924 91.7645653 -28.74162006 92.44820499 C-28.67531464 108.60694975 -28.62569728 124.76565132 -28.59456348 140.92450047 C-28.57910653 148.73886061 -28.55803948 156.55312985 -28.52368164 164.36743164 C-28.49374332 171.17982051 -28.47441648 177.99214353 -28.46773452 184.80459636 C-28.46382974 188.41045374 -28.45467761 192.01612274 -28.43280983 195.62191963 C-28.40857344 199.65110695 -28.40803285 203.67996851 -28.40942383 207.70922852 C-28.398638 208.89965759 -28.38785217 210.09008667 -28.3767395 211.31658936 C-28.39961458 217.43730584 -28.60961177 222.10464644 -31.75 227.4375 C-35.98013344 230.25758896 -39.78165617 230.10537573 -44.75 229.4375 C-48.08957909 227.15681184 -49.01638786 225.30211757 -49.75 221.4375 C-49.83806091 219.62109666 -49.87199641 217.80175122 -49.87025452 215.98321533 C-49.87162918 214.87546249 -49.87300385 213.76770966 -49.87442017 212.62638855 C-49.86902725 210.81054008 -49.86902725 210.81054008 -49.86352539 208.95800781 C-49.86367142 207.67970596 -49.86381744 206.40140411 -49.8639679 205.08436584 C-49.86425475 201.5826342 -49.858376 198.08093682 -49.85139394 194.57921314 C-49.84514189 190.91835008 -49.84455513 187.25748623 -49.84336853 183.59661865 C-49.84026068 176.66583949 -49.83205464 169.7350761 -49.82201904 162.80430388 C-49.81084096 154.91319053 -49.80534318 147.02207643 -49.80032361 139.13095713 C-49.78987159 122.89979552 -49.7722827 106.66864977 -49.75 90.4375 C-50.63260498 90.45321045 -51.51520996 90.4689209 -52.42456055 90.48510742 C-55.71400886 90.53637998 -59.00302961 90.57391917 -62.29272461 90.60229492 C-63.71369141 90.6173376 -65.13461213 90.63777704 -66.55541992 90.66381836 C-68.60346886 90.70040347 -70.6509015 90.71727097 -72.69921875 90.73046875 C-73.92987061 90.7461792 -75.16052246 90.76188965 -76.4284668 90.77807617 C-80.02920391 90.40887159 -81.88533543 89.60668163 -84.75 87.4375 C-86.5957676 83.74596481 -86.23175083 79.46728061 -85.75 75.4375 C-83.55873184 72.33950019 -82.33943664 71.63397888 -78.75 70.4375 C-76.68501108 70.35434248 -74.6174211 70.33014122 -72.55078125 70.33984375 C-70.73803711 70.34467773 -70.73803711 70.34467773 -68.88867188 70.34960938 C-67.62603516 70.35798828 -66.36339844 70.36636719 -65.0625 70.375 C-63.15114258 70.38176758 -63.15114258 70.38176758 -61.20117188 70.38867188 C-58.05073436 70.40047127 -54.90039051 70.41693403 -51.75 70.4375 C-51.76571045 69.56125977 -51.7814209 68.68501953 -51.79760742 67.78222656 C-51.84931443 64.4721055 -51.88662632 61.16242518 -51.91479492 57.85205078 C-51.92970701 56.43043159 -51.95004409 55.00885693 -51.97631836 53.58740234 C-52.24876048 38.44816786 -50.29835333 24.09929827 -39.5625 12.625 C-28.50674684 2.26365779 -14.6870536 -0.12494091 0 0 Z " fill="#000000" transform="translate(85.75,-0.4375)"/>
<path d="M0 0 C9.81210915 8.19227329 12.65238366 16.76164465 13.8125 29.234375 C14.08042491 34.61520035 13.86373156 38.6144236 10.4375 43 C6.73728852 44.51803548 2.89452915 45.04219794 -1 44 C-5.76168254 39.53148075 -6.93817812 33.56928088 -8.7109375 27.50585938 C-10.08510518 23.05459042 -11.16803263 19.94010909 -15 17 C-21.8277145 13.82431884 -28.48195387 14.27550035 -35.5 16.5625 C-45.89689526 20.68640818 -56.70567079 30.04181108 -62 40 C-62.69175892 43.12229356 -62.6919981 46.14276011 -62.65942383 49.33178711 C-62.66990753 50.23989136 -62.68039124 51.14799561 -62.69119263 52.08361816 C-62.71984014 55.065212 -62.71366314 58.04563751 -62.70703125 61.02734375 C-62.7201525 63.10243681 -62.73545803 65.17751711 -62.75285339 67.25257874 C-62.792666 72.69909416 -62.80289148 78.14527518 -62.80688477 83.59191895 C-62.81622317 89.15578329 -62.85364123 94.71945172 -62.88867188 100.28320312 C-62.95320979 111.18879296 -62.98648107 122.0942359 -63 133 C-61.72882324 132.97905273 -60.45764648 132.95810547 -59.14794922 132.93652344 C-54.41808397 132.86395744 -49.68826765 132.81813975 -44.95800781 132.78027344 C-42.9133272 132.7601958 -40.86870373 132.73292775 -38.82421875 132.69824219 C-35.88006463 132.64955481 -32.93667166 132.62699256 -29.9921875 132.609375 C-29.0825827 132.58872986 -28.17297791 132.56808472 -27.23580933 132.54681396 C-21.53376479 132.54481182 -18.32015966 133.16697231 -14 137 C-12.78237269 140.65288193 -12.60924149 143.15754136 -13 147 C-15.00672894 150.47884669 -17.11879769 152.7062659 -21 154 C-22.35716146 154.09395227 -23.71841368 154.13481755 -25.07881165 154.14044189 C-25.90726593 154.14615204 -26.73572021 154.15186218 -27.58927917 154.15774536 C-28.49479019 154.15886322 -29.40030121 154.15998108 -30.33325195 154.16113281 C-31.28965576 154.16609772 -32.24605957 154.17106262 -33.23144531 154.17617798 C-36.40039791 154.19080169 -39.56930044 154.19760205 -42.73828125 154.203125 C-44.93922426 154.20887638 -47.14016725 154.21463411 -49.34111023 154.22039795 C-53.95877313 154.2309086 -58.57641861 154.23675082 -63.1940918 154.24023438 C-69.10904762 154.24571852 -75.02377319 154.26974474 -80.93865681 154.29820633 C-85.48628917 154.31683657 -90.03386613 154.32203853 -94.58153343 154.32357025 C-96.76200812 154.32659654 -98.94248184 154.33462424 -101.12291908 154.34775543 C-104.17497869 154.36482332 -107.22647639 154.36293368 -110.27856445 154.35644531 C-111.17800278 154.3656601 -112.0774411 154.37487488 -113.00413513 154.3843689 C-118.0712728 154.35065017 -121.64273414 153.88225394 -126 151 C-128.01471597 147.97792605 -128.33719034 147.08273301 -128.4375 143.625 C-128.47746094 142.87476563 -128.51742187 142.12453125 -128.55859375 141.3515625 C-128 139 -128 139 -123 134 C-110.46 134 -97.92 134 -85 134 C-85 95.39 -85 56.78 -85 17 C-96.55 17 -108.1 17 -120 17 C-125 14 -125 14 -127 12 C-127.69451672 7.36450471 -127.94125248 3.28637839 -125.125 -0.5625 C-121.88120841 -2.7568296 -120.05842971 -3.13647051 -116.1706543 -3.19287109 C-115.16588547 -3.20893402 -114.16111664 -3.22499695 -113.12590027 -3.24154663 C-108.52868277 -3.28595105 -103.93161025 -3.32705938 -99.33422852 -3.35009766 C-96.90834972 -3.36666321 -94.48251985 -3.39396075 -92.05688477 -3.43212891 C-88.56240472 -3.48684539 -85.06906927 -3.50876441 -81.57421875 -3.5234375 C-80.49073654 -3.54610687 -79.40725433 -3.56877625 -78.29093933 -3.59213257 C-70.76078576 -3.57097237 -70.76078576 -3.57097237 -66.84814453 -0.63452148 C-64.96843575 2.04499469 -63.98822856 4.15172937 -63.1875 7.3125 C-62.83751953 8.63701172 -62.83751953 8.63701172 -62.48046875 9.98828125 C-62.32191406 10.65214844 -62.16335937 11.31601563 -62 12 C-61.64550781 11.5875 -61.29101562 11.175 -60.92578125 10.75 C-45.61939129 -5.85354166 -19.71558625 -14.02839791 0 0 Z " fill="#000000" transform="translate(300,73)"/>
<path d="M0 0 C14.15063525 6.17815919 24.00633883 19.9569718 33 32 C33.43199707 32.57121582 33.86399414 33.14243164 34.30908203 33.73095703 C57.12898591 64.02202307 67.2229985 97.3523899 67.25 135.0625 C67.25067474 135.90803436 67.25134949 136.75356873 67.25204468 137.62472534 C67.2343748 151.59697788 66.58134598 165.23451523 64 179 C63.83371094 179.88848633 63.66742187 180.77697266 63.49609375 181.69238281 C58.43469471 207.51489087 47.96997111 231.13015139 32 252 C31.3090625 252.90363281 30.618125 253.80726563 29.90625 254.73828125 C10.15184966 279.94081977 10.15184966 279.94081977 -2 284 C-5.91677665 284.45193577 -8.76267424 284.34427038 -12 282 C-14.62710123 278.91995029 -14.99554698 277.27163443 -15.0625 273.1875 C-13.55510152 265.06262217 -6.88811028 259.84603364 -1.25 254.3125 C29.1912679 224.39442891 43.47321828 182.80310059 44.16430664 140.60766602 C44.5271573 97.85621892 30.18863892 59.22708142 0.36914062 28.38964844 C-1.51467417 26.47761673 -3.44422266 24.61445293 -5.375 22.75 C-10.22834265 17.91700679 -14.89639975 13.21160765 -15.125 6.125 C-12.58281835 -0.9366157 -6.64422706 -1.26333895 0 0 Z " fill="#000000" transform="translate(2492,0)"/>
<path d="M0 0 C3.0625 1.5625 3.0625 1.5625 5 4 C5.72384873 7.42183036 5.69471457 9.6541722 4.06640625 12.80859375 C0.52197992 17.8675524 -4.00839141 22.0588809 -8.39892578 26.37036133 C-13.35237529 31.26646155 -17.76609984 36.46680773 -22 42 C-22.60690674 42.78431396 -22.60690674 42.78431396 -23.22607422 43.58447266 C-30.07244284 52.49975544 -35.39474389 61.75425666 -40 72 C-40.41741455 72.92184082 -40.41741455 72.92184082 -40.84326172 73.86230469 C-44.12786352 81.24026962 -46.64120142 88.71795946 -48.75 96.5 C-48.94875732 97.22227783 -49.14751465 97.94455566 -49.35229492 98.6887207 C-52.6503431 111.52891428 -53.38203507 124.44457112 -53.3125 137.625 C-53.30926727 138.73651428 -53.30926727 138.73651428 -53.30596924 139.8704834 C-53.18165948 166.6308539 -48.13708971 192.00368436 -36 216 C-35.65066406 216.69319336 -35.30132813 217.38638672 -34.94140625 218.10058594 C-25.84024157 235.8445233 -12.80611809 250.93555592 1.6953125 264.53515625 C4.81489257 268.03767878 5.43289626 271.35146703 5.328125 276.03125 C4.80947233 279.14316604 3.21445226 280.85067869 1 283 C-2.18225539 284.59112769 -4.45805748 284.33732786 -8 284 C-19.95141178 279.46288997 -28.40455569 268.77489311 -36 259 C-36.79148437 258.02417969 -37.58296875 257.04835938 -38.3984375 256.04296875 C-70.64956389 215.60188756 -81.3429156 163.22940421 -75.98632812 112.37158203 C-71.36416397 73.42755329 -52.68986948 41.09459945 -26 13 C-25.37351562 12.3090625 -24.74703125 11.618125 -24.1015625 10.90625 C-17.7532085 4.11082882 -9.76280309 -2.21008338 0 0 Z " fill="#000000" transform="translate(2214,0)"/>
<path d="M0 0 C2 1 2 1 2 1 Z " fill="#000000" transform="translate(2311,262)"/>
</svg>
