<?xml version="1.0" encoding="UTF-8"?>
<svg version="1.1" xmlns="http://www.w3.org/2000/svg" width="2560" height="1306">
<path d="M0 0 C1.19765551 -0.00424107 1.19765551 -0.00424107 2.41950607 -0.00856781 C6.66492775 -0.02343908 10.91031666 -0.03273819 15.15576172 -0.03710938 C18.56993599 -0.0414429 21.98385023 -0.05515057 25.39794922 -0.078125 C44.01246658 -0.20065834 62.49663984 0.07175974 81.05859375 1.57421875 C81.81900089 1.63563301 82.57940804 1.69704727 83.36285782 1.76032257 C163.48453409 8.38813648 242.49375173 28.86628819 381.71484375 98.33935547 C384.27841551 99.93406756 386.85028746 101.51312369 389.4296875 103.08203125 C399.16523839 109.02960154 408.47126616 115.51601628 417.7109375 122.203125 C418.47841309 122.75516602 419.24588867 123.30720703 420.03662109 123.87597656 C430.94640483 131.7356891 441.50108444 139.92029622 451.78564453 148.58203125 C453.59794211 150.10798305 455.41701559 151.62539803 457.23828125 153.140625 C463.57105421 158.4295241 469.7201531 163.88074065 475.76171875 169.5 C477.90067487 171.48457194 480.09479539 173.3892149 482.3125 175.28515625 C487.49698243 179.80508732 492.33272277 184.67505377 497.18383789 189.5456543 C498.77053696 191.13771466 500.36251492 192.7243549 501.95507812 194.31054688 C507.41851072 199.77041006 512.69062509 205.32980977 517.7109375 211.203125 C519.33061567 212.97882721 520.95505468 214.75020807 522.5859375 216.515625 C527.50712097 221.91782641 532.12595403 227.51542398 536.7109375 233.203125 C537.72027844 234.43317516 538.73076348 235.6622871 539.7421875 236.890625 C600.82376689 311.22158527 644.16364521 399.14359667 682.7109375 590.203125 C684.6909375 590.203125 686.6709375 590.203125 688.7109375 590.203125 C688.78223877 588.77190308 688.78223877 588.77190308 688.85498047 587.31176758 C689.40417737 577.10088478 690.4506513 567.01997459 691.8359375 556.890625 C691.94286926 556.10164825 692.04980103 555.31267151 692.15997314 554.49978638 C700.27474524 495.21666243 717.29363745 437.77220656 741.7109375 383.203125 C742.23977539 382.01912109 742.76861328 380.83511719 743.31347656 379.61523438 C750.05055097 364.61785046 757.24456067 350.00049327 765.32177734 335.68017578 C766.65583729 333.30137575 767.9634473 330.91020307 769.26171875 328.51171875 C775.27723281 317.43496611 781.83763907 306.76678501 788.7109375 296.203125 C789.44981201 295.06593018 789.44981201 295.06593018 790.20361328 293.90576172 C810.01919052 263.52536336 832.35279566 234.70885242 857.0234375 208.109375 C858.76556583 206.22544553 860.49557912 204.33021119 862.2109375 202.421875 C867.93495667 196.06960982 873.86212723 189.94727615 879.8984375 183.890625 C881.02100952 182.76116455 881.02100952 182.76116455 882.16625977 181.60888672 C886.28767572 177.49883956 890.49891385 173.55860129 894.90893555 169.76000977 C897.32951522 167.66868927 899.67387472 165.49863867 902.0234375 163.328125 C906.45725061 159.28910347 910.99148334 155.42805622 915.66015625 151.6640625 C917.88382424 149.87032264 920.09292228 148.06440117 922.29296875 146.2421875 C932.4832189 137.82983279 942.98994962 129.92472504 953.7109375 122.203125 C954.4942041 121.63480957 955.2774707 121.06649414 956.08447266 120.48095703 C1029.77489573 67.14935826 1116.75108829 31.17943335 1290.7109375 1.203125 C1291.78459061 1.11579605 1292.85824371 1.0284671 1293.96443176 0.93849182 C1304.51586285 0.14986493 1315.02129735 0.0220511 1325.59765625 0 C1326.53189737 -0.00282738 1327.4661385 -0.00565475 1328.42868996 -0.00856781 C1333.39150892 -0.0234682 1338.35429961 -0.03275036 1343.31713867 -0.03710938 C1347.33383459 -0.04145566 1351.35031105 -0.05521003 1355.36694336 -0.078125 C1388.11805781 -0.26096717 1420.34737615 1.07649541 1452.7734375 5.953125 C1453.63317169 6.07940277 1454.49290588 6.20568054 1455.37869263 6.33578491 C1494.98686254 12.17088693 1533.81672736 21.2335361 1571.7109375 34.203125 C1572.9761983 34.63292639 1574.24149873 35.06261111 1575.50683594 35.4921875 C1613.46816855 48.41942682 1650.25148551 64.61307463 1684.7109375 85.203125 C1685.75830078 85.82687012 1686.80566406 86.45061523 1687.88476562 87.09326172 C1702.58494578 95.88951996 1716.85060587 105.13700971 1730.7109375 115.203125 C1731.54270508 115.80431152 1732.37447266 116.40549805 1733.23144531 117.02490234 C1742.62304838 123.82491215 1751.82534347 130.75159836 1760.7109375 138.203125 C1762.54368575 139.68301655 1764.37703215 141.1621676 1766.2109375 142.640625 C1770.92271679 146.49205087 1775.44058328 150.51946963 1779.91015625 154.6484375 C1782.10255184 156.64819582 1784.31550069 158.60837401 1786.5546875 160.5546875 C1790.62408902 164.10458076 1794.58898715 167.75471253 1798.5234375 171.453125 C1799.5594812 172.4265686 1799.5594812 172.4265686 1800.61645508 173.41967773 C1806.43074036 178.90310716 1812.1623613 184.44976831 1817.7109375 190.203125 C1818.31035156 190.81929687 1818.90976563 191.43546875 1819.52734375 192.0703125 C1822.73882204 195.58806256 1822.73882204 195.58806256 1822.62597656 198.07714844 C1821.31481379 201.12346791 1819.32949715 202.6152906 1816.8203125 204.78125 C1811.25519822 209.70379967 1805.96404499 214.85610183 1800.7265625 220.125 C1799.93495728 220.91998901 1799.14335205 221.71497803 1798.32775879 222.53405762 C1795.87009012 225.00504231 1793.41508896 227.4786473 1790.9609375 229.953125 C1787.69829159 233.24256097 1784.43220289 236.52852388 1781.1640625 239.8125 C1780.4336676 240.55119324 1779.70327271 241.28988647 1778.95074463 242.05096436 C1775.63641047 245.38090658 1772.29399715 248.61409979 1768.73339844 251.68066406 C1764.23529914 255.55776585 1760.07305627 259.7332112 1755.8984375 263.953125 C1755.08528076 264.77006836 1754.27212402 265.58701172 1753.43432617 266.42871094 C1750.85740453 269.01775171 1748.28376125 271.61001237 1745.7109375 274.203125 C1742.31806597 277.62275219 1738.92179093 281.03894649 1735.5234375 284.453125 C1734.75862061 285.22624023 1733.99380371 285.99935547 1733.20581055 286.79589844 C1729.80355928 290.2134533 1726.38006315 293.54269805 1722.72460938 296.68945312 C1718.15038731 300.62911731 1713.92413135 304.88265899 1709.6796875 309.171875 C1708.42665833 310.43058411 1708.42665833 310.43058411 1707.14831543 311.71472168 C1704.50006664 314.375094 1701.85509344 317.03868513 1699.2109375 319.703125 C1695.72431149 323.21649773 1692.23428824 326.72644471 1688.7421875 330.234375 C1687.95549683 331.02936401 1687.16880615 331.82435303 1686.35827637 332.64343262 C1682.18099933 336.83900071 1677.92760208 340.86387048 1673.4196167 344.70336914 C1670.03394804 347.67506588 1667.06154728 351.05278319 1664.0078125 354.359375 C1661.7109375 356.203125 1661.7109375 356.203125 1659.74609375 356.3359375 C1656.70804916 354.64489541 1654.64309807 352.17447636 1652.3984375 349.578125 C1651.41774823 348.47690045 1650.43598063 347.37663524 1649.453125 346.27734375 C1648.98100586 345.74544434 1648.50888672 345.21354492 1648.02246094 344.66552734 C1643.62821697 339.76576537 1638.83925876 335.35846834 1633.85546875 331.0703125 C1631.55986321 329.07158855 1629.3261415 327.01367271 1627.0859375 324.953125 C1621.47294099 319.8962943 1615.58373727 315.24636632 1609.59375 310.64892578 C1608.34118463 309.68708811 1607.09116488 308.72192602 1605.84375 307.75341797 C1543.17408087 259.14216787 1464.79457633 228.51869024 1385.7109375 222.203125 C1384.68782471 222.11772461 1383.66471191 222.03232422 1382.6105957 221.94433594 C1371.66495724 221.11477176 1360.74658269 220.96010312 1349.7734375 220.953125 C1348.81072937 220.95245026 1347.84802124 220.95177551 1346.85614014 220.95108032 C1329.30329164 220.97046873 1312.12464387 221.88544032 1294.7109375 224.203125 C1293.49438477 224.36409668 1292.27783203 224.52506836 1291.02441406 224.69091797 C1212.21272574 235.57483513 1136.01727508 269.12164078 1063.1875 327.9375 C1061.17808806 329.77576329 1059.13954912 331.55419605 1057.07421875 333.328125 C1051.9276233 337.82148948 1047.1045658 342.62547985 1042.2734375 347.453125 C1040.93829102 348.76990234 1040.93829102 348.76990234 1039.57617188 350.11328125 C1034.2558802 355.42191414 1029.34442216 360.89896913 1024.66845703 366.78417969 C1022.86460873 369.01323045 1020.98768823 371.11563595 1019.0234375 373.203125 C970.32563695 427.51617889 941.04469285 501.95917438 929.5 573.15234375 C929.22670885 574.81756902 928.95302919 576.48273057 928.67895508 578.14782715 C928.01848811 582.16554266 927.36321465 586.1840721 926.7109375 590.203125 C927.80467552 590.2026641 928.89841354 590.20220321 930.02529514 590.20172834 C1015.42110042 590.16624099 1100.81694675 590.15103918 1399.21875 590.421875 C1401.27015841 590.42463932 1403.32156682 590.42740355 1405.37297523 590.43016768 C1455.09981989 590.49722088 1504.82665973 590.56755851 1554.55349764 590.63943303 C1586.67010392 590.68585376 1618.78671144 590.73129309 1650.90332031 590.77587891 C1651.97930159 590.77737296 1653.05528286 590.77886702 1654.16386963 590.78040635 C1664.98054978 590.79542496 1675.79722995 590.81042685 1686.61391014 590.82541655 C1708.60050688 590.85588584 1730.58710346 590.88646594 1752.57369995 590.91711426 C1753.58207343 590.91851975 1754.59044691 590.91992524 1755.62937716 590.92137332 C1821.6565666 591.01341577 1887.6837524 591.10803039 1953.7109375 591.203125 C1955.72234689 597.13270469 1956.95127307 602.98919893 1958.0859375 609.140625 C1958.30217773 610.31052979 1958.51841797 611.48043457 1958.74121094 612.68579102 C1960.40842558 621.97359652 1961.76280569 631.2821941 1962.9609375 640.640625 C1963.12384277 641.91220459 1963.28674805 643.18378418 1963.45458984 644.49389648 C1963.89710737 648.06248758 1964.33119805 651.62724514 1964.7109375 655.203125 C1964.79829163 656.01273178 1964.88564575 656.82233856 1964.97564697 657.65647888 C1965.88121166 667.03641853 1965.89345653 676.39458358 1965.9140625 685.80859375 C1965.91688988 686.69416773 1965.91971725 687.57974171 1965.92263031 688.49215126 C1965.9375559 693.19862784 1965.94682157 697.90507441 1965.95117188 702.61157227 C1965.95551574 706.4267759 1965.96925643 710.24174819 1965.9921875 714.05688477 C1966.13293034 737.96712861 1965.47276603 761.44137346 1962.7109375 785.203125 C1962.60851746 786.1261441 1962.50609741 787.04916321 1962.40057373 788.00015259 C1961.85246226 792.93491299 1961.22203497 797.84987674 1960.5234375 802.765625 C1960.42244751 803.48273651 1960.32145752 804.19984802 1960.21740723 804.93869019 C1951.33838503 867.39235851 1934.21225353 929.35638137 1906.7109375 986.203125 C1905.98221436 987.72413818 1905.98221436 987.72413818 1905.23876953 989.27587891 C1886.54408794 1028.17056058 1862.62767744 1064.31641896 1834.7109375 1097.203125 C1833.83743652 1098.23324707 1833.83743652 1098.23324707 1832.94628906 1099.28417969 C1831.22794974 1101.30401553 1829.50287945 1103.31779044 1827.7734375 1105.328125 C1827.26611084 1105.91948242 1826.75878418 1106.51083984 1826.23608398 1107.12011719 C1823.07652905 1110.75854945 1819.77587509 1114.1988545 1816.328125 1117.56567383 C1814.67958043 1119.23487498 1813.15933958 1120.97165415 1811.6484375 1122.765625 C1804.3760626 1131.18973348 1796.31536155 1139.18688157 1787.8203125 1146.375 C1785.52465713 1148.36456799 1783.30807546 1150.42529371 1781.08886719 1152.49926758 C1775.77086477 1157.46626955 1770.37513171 1162.25324742 1764.6953125 1166.80859375 C1762.48066208 1168.58553185 1760.28601369 1170.37808302 1758.1015625 1172.19140625 C1736.39341615 1190.15150119 1712.93248092 1205.84499359 1688.7109375 1220.203125 C1687.96070312 1220.65300781 1687.21046875 1221.10289063 1686.4375 1221.56640625 C1662.03468179 1236.15058212 1636.25573842 1249.02006254 1609.7109375 1259.203125 C1608.58365234 1259.63786133 1607.45636719 1260.07259766 1606.29492188 1260.52050781 C1545.64909467 1283.7357173 1482.15897852 1298.33089309 1417.4609375 1303.953125 C1416.44977371 1304.04200989 1416.44977371 1304.04200989 1415.41818237 1304.13269043 C1394.70537658 1305.91738213 1373.93023461 1306.41314207 1353.1484375 1306.390625 C1352.09844574 1306.39002075 1351.04845398 1306.3894165 1349.96664429 1306.38879395 C1291.91658611 1306.29921305 1235.14785491 1299.817599 1178.7109375 1286.203125 C1178.05605347 1286.04541626 1177.40116943 1285.88770752 1176.72644043 1285.72521973 C1118.5951286 1271.65186596 1061.65144388 1248.80740666 1009.7109375 1219.203125 C1008.93395508 1218.76274902 1008.15697266 1218.32237305 1007.35644531 1217.86865234 C977.85727947 1201.02185329 949.59485684 1181.29237944 923.44775391 1159.63574219 C920.94859345 1157.57430368 918.42048379 1155.54895793 915.8984375 1153.515625 C911.29320394 1149.74707802 906.88220216 1145.79524196 902.51171875 1141.7578125 C900.32199337 1139.76048977 898.1116961 1137.80302438 895.875 1135.859375 C891.75828259 1132.26845375 887.7520652 1128.57091747 883.7734375 1124.828125 C883.07613525 1124.17255615 882.37883301 1123.5169873 881.66040039 1122.84155273 C874.76960532 1116.34369256 868.01188319 1109.81987626 861.84765625 1102.62109375 C859.51360784 1099.97982142 857.1070419 1097.41794917 854.68823242 1094.85449219 C849.27814527 1089.11853054 844.01873983 1083.34696046 839.09765625 1077.1796875 C837.27004277 1074.90040522 835.42074972 1072.65144212 833.54296875 1070.4140625 C824.81337453 1059.99101568 816.62893116 1049.25358423 808.7109375 1038.203125 C808.12280273 1037.38408691 807.53466797 1036.56504883 806.92871094 1035.72119141 C798.41101714 1023.81921458 790.33092993 1011.69892458 782.7109375 999.203125 C782.19708496 998.36088379 781.68323242 997.51864258 781.15380859 996.65087891 C746.28889856 939.20045655 720.0127814 877.26397147 704.0859375 811.953125 C703.91131989 811.24094818 703.73670227 810.52877136 703.55679321 809.79501343 C703.06654252 807.78177155 702.58578725 805.76655665 702.109375 803.75 C701.83786621 802.60370117 701.56635742 801.45740234 701.28662109 800.27636719 C700.7109375 797.203125 700.7109375 797.203125 700.7109375 792.203125 C691.1409375 792.203125 681.5709375 792.203125 671.7109375 792.203125 C671.3809375 795.173125 671.0509375 798.143125 670.7109375 801.203125 C670.18866673 803.75668458 669.61652026 806.30052888 668.99609375 808.83203125 C668.73985481 809.88040916 668.73985481 809.88040916 668.47843933 810.94996643 C667.91845226 813.22402647 667.34756686 815.49509623 666.7734375 817.765625 C666.57463989 818.55523621 666.37584229 819.34484741 666.17102051 820.15838623 C656.56172864 858.15044964 643.28040851 894.68463425 626.7109375 930.203125 C626.15792969 931.39276855 625.60492187 932.58241211 625.03515625 933.80810547 C617.76715045 949.3930491 610.01614861 964.61926484 601.31542969 979.46337891 C599.69687387 982.22713931 598.09750625 985.00137317 596.5 987.77734375 C583.22928347 1010.69546906 568.33000476 1032.76843404 551.96728516 1053.59960938 C550.65936823 1055.26894447 549.36231375 1056.94632902 548.06640625 1058.625 C539.40659099 1069.80131616 530.2362664 1080.49990255 520.73046875 1090.96484375 C518.81941323 1093.08289948 516.94888167 1095.23027067 515.0859375 1097.390625 C512.34049071 1100.54725622 509.44442395 1103.49166509 506.4609375 1106.421875 C504.62851263 1108.28702174 502.91740615 1110.22240246 501.2109375 1112.203125 C496.10321508 1118.10715159 490.58947509 1123.36161569 484.6796875 1128.453125 C482.78070679 1130.14110786 480.99087762 1131.89082234 479.2109375 1133.703125 C475.54797124 1137.41525859 471.66859149 1140.80993382 467.7109375 1144.203125 C466.6676237 1145.11028039 465.62468371 1146.01786581 464.58203125 1146.92578125 C457.08373445 1153.43285021 449.43898303 1159.7010501 441.57666016 1165.76269531 C439.63069152 1167.26507885 437.6923252 1168.7769544 435.75390625 1170.2890625 C415.05392335 1186.36017323 393.33403005 1200.98245699 370.7109375 1214.203125 C369.57543457 1214.86948975 369.57543457 1214.86948975 368.41699219 1215.54931641 C312.6265818 1248.19264163 252.48851812 1271.92542183 189.7109375 1287.203125 C188.53805176 1287.48881348 187.36516602 1287.77450195 186.15673828 1288.06884766 C147.92325705 1297.23361364 108.94743498 1302.85060179 69.7109375 1305.203125 C68.80327637 1305.26097168 67.89561523 1305.31881836 66.96044922 1305.37841797 C-14.37676625 1310.35222338 -96.4191187 1302.32712454 -285.19873047 1237.27929688 C-286.6906203 1236.51122278 -288.18468128 1235.74735984 -289.68017578 1234.98632812 C-325.63696993 1216.67404162 -359.29408415 1194.02508888 -390.2890625 1168.203125 C-390.79937012 1167.77918457 -391.30967773 1167.35524414 -391.83544922 1166.91845703 C-399.35449855 1160.66134605 -406.65619191 1154.21300825 -413.82275391 1147.55615234 C-415.25331266 1146.23611295 -416.69876472 1144.9322717 -418.14453125 1143.62890625 C-424.11510053 1138.23847326 -429.90252044 1132.69295016 -435.6015625 1127.015625 C-436.25930664 1126.36247314 -436.91705078 1125.70932129 -437.59472656 1125.03637695 C-441.45453173 1121.1643819 -445.12465389 1117.17859036 -448.69702148 1113.0402832 C-450.80272173 1110.61038068 -452.98236309 1108.25229625 -455.1640625 1105.890625 C-460.0810058 1100.48641705 -464.74994939 1094.92649921 -469.2890625 1089.203125 C-469.80484863 1088.55456543 -470.32063477 1087.90600586 -470.85205078 1087.23779297 C-483.5931039 1071.17074735 -495.40939688 1054.58610691 -506.2890625 1037.203125 C-506.75248047 1036.46320313 -507.21589844 1035.72328125 -507.69335938 1034.9609375 C-540.36417772 982.4366589 -561.8113086 925.14076798 -576.2890625 865.203125 C-576.57765137 864.01799316 -576.86624023 862.83286133 -577.16357422 861.61181641 C-583.33277526 836.0079567 -587.59246274 809.99050175 -590.5390625 783.828125 C-590.65462494 782.82073776 -590.65462494 782.82073776 -590.77252197 781.79299927 C-593.63966723 756.42801887 -594.67394428 731.02930882 -594.6015625 705.515625 C-594.59963557 704.15476493 -594.5977954 702.79390473 -594.59603882 701.43304443 C-594.53163772 667.05433219 -592.75021575 632.20839694 -584.20288086 598.74487305 C-584.01832085 598.01482811 -583.83376083 597.28478317 -583.64360809 596.53261566 C-583.19407279 594.75561674 -582.74185141 592.97929767 -582.2890625 591.203125 C-581.29143165 591.20138875 -580.29380079 591.1996525 -579.2659387 591.19786364 C-498.99470582 591.05814043 -418.72347596 590.91673535 -338.45224833 590.7740261 C-335.30842869 590.76843691 -332.16460904 590.76284891 -329.02078938 590.75726205 C-249.67788791 590.61626053 -170.33498865 590.47392976 240.0779621 589.64898795 C243.97607195 589.6405924 247.8741818 589.63220021 251.77229166 589.62380838 C316.08517745 589.48533406 380.39805974 589.34528106 444.7109375 589.203125 C443.93191762 584.37487615 443.14569881 579.54786784 442.35345459 574.72177124 C442.08620511 573.08792052 441.82075488 571.45377424 441.55731201 569.81930542 C435.69765618 533.49754276 424.89181514 498.72171231 409.7109375 465.203125 C409.23930176 464.15817871 408.76766602 463.11323242 408.28173828 462.03662109 C392.05213029 426.40622875 370.50306193 393.88181774 344.9609375 364.265625 C344.44225098 363.66298828 343.92356445 363.06035156 343.38916016 362.43945312 C340.17807716 358.75624201 336.83234996 355.26375608 333.33374023 351.85229492 C331.63244989 350.12336213 330.0756775 348.31621835 328.5234375 346.453125 C324.15033121 341.38385156 319.1676682 336.9870771 314.18798828 332.53173828 C312.85032138 331.32850137 311.52774821 330.10853646 310.20703125 328.88671875 C283.3791151 304.18028526 251.43250736 283.85494795 218.62060547 268.12548828 C216.72559556 267.21020479 214.84506108 266.26945661 212.96484375 265.32421875 C173.40855771 245.73292051 129.25757325 234.22613371 85.7109375 228.203125 C84.52951172 228.03796387 83.34808594 227.87280273 82.13085938 227.70263672 C45.41662222 222.83392206 6.35222828 222.83569191 -30.2890625 228.203125 C-30.96336304 228.30022766 -31.63766357 228.39733032 -32.33239746 228.49737549 C-77.45483033 235.02535842 -120.982926 247.90295765 -162.2890625 267.203125 C-163.30129883 267.6760498 -164.31353516 268.14897461 -165.35644531 268.63623047 C-198.43976219 284.27834253 -230.15384615 304.73484269 -257.71777344 328.84228516 C-259.36359646 330.26767632 -261.03020969 331.66512599 -262.703125 333.05859375 C-269.7790417 338.98419469 -276.41084938 345.12833452 -282.67163086 351.9230957 C-284.328125 353.66015625 -284.328125 353.66015625 -287.2890625 356.203125 C-290.45916936 355.92624053 -292.0928658 354.76789485 -294.27832031 352.53857422 C-294.83279846 351.98064178 -295.38727661 351.42270935 -295.95855713 350.84786987 C-296.54715515 350.24065094 -297.13575317 349.63343201 -297.7421875 349.0078125 C-298.67076569 348.06930954 -298.67076569 348.06930954 -299.61810303 347.11184692 C-301.5989778 345.10757648 -303.56945819 343.09346688 -305.5390625 341.078125 C-307.49600059 339.08588756 -309.45512747 337.09587853 -311.41717529 335.1086731 C-312.63605979 333.87309668 -313.85182914 332.63443584 -315.06378174 331.39205933 C-318.00298891 328.40227336 -320.9971232 325.54917825 -324.17480469 322.81298828 C-328.70111611 318.90350586 -332.8970091 314.70329823 -337.1015625 310.453125 C-337.91471924 309.63618164 -338.72787598 308.81923828 -339.56567383 307.97753906 C-343.0108359 304.51617458 -346.4499654 301.04883909 -349.88964844 297.58203125 C-352.41652758 295.03697312 -354.94647565 292.49499369 -357.4765625 289.953125 C-358.24137939 289.18000977 -359.00619629 288.40689453 -359.79418945 287.61035156 C-363.20094072 284.18827645 -366.6295327 280.85492489 -370.2890625 277.703125 C-374.78067983 273.83468295 -378.93438611 269.66551567 -383.1015625 265.453125 C-383.91471924 264.63618164 -384.72787598 263.81923828 -385.56567383 262.97753906 C-389.0108359 259.51617458 -392.4499654 256.04883909 -395.88964844 252.58203125 C-398.41652758 250.03697312 -400.94647565 247.49499369 -403.4765625 244.953125 C-404.24137939 244.18000977 -405.00619629 243.40689453 -405.79418945 242.61035156 C-409.8483245 238.53798069 -413.99477331 234.66577586 -418.34838867 230.91671753 C-421.65486887 227.99713378 -424.7462269 224.86878582 -427.8515625 221.73828125 C-428.86669922 220.72102211 -428.86669922 220.72102211 -429.90234375 219.68321228 C-432.03363925 217.54638195 -434.16140468 215.40607677 -436.2890625 213.265625 C-437.74586029 211.80380377 -439.20288951 210.34221313 -440.66015625 208.88085938 C-444.20580223 205.324271 -447.74828989 201.76456484 -451.2890625 198.203125 C-445.06636009 185.22802047 -430.25750431 173.18883295 -419.36328125 163.99609375 C-417.07825076 162.0208979 -414.87557879 159.97132406 -412.66918945 157.90917969 C-406.41198638 152.06443036 -399.97030567 146.56213001 -393.2890625 141.203125 C-392.09632908 140.2203585 -390.90500849 139.23587569 -389.71484375 138.25 C-365.20498502 118.00326578 -338.81346188 100.09394387 -311.2890625 84.203125 C-310.6197168 83.81398926 -309.95037109 83.42485352 -309.26074219 83.02392578 C-237.79510669 41.59535061 -157.78540164 17.35492206 -50.9140625 2.890625 C-49.74975204 2.76852158 -49.74975204 2.76852158 -48.56192017 2.64395142 C-32.36820087 0.96967783 -16.27454714 0.04008992 0 0 Z M-361.2890625 793.203125 C-359.75755918 801.92473826 -359.75755918 801.92473826 -357.625 810.375 C-357.15549927 811.97130249 -357.15549927 811.97130249 -356.67651367 813.59985352 C-356.34240479 814.70643311 -356.0082959 815.8130127 -355.6640625 816.953125 C-355.13292847 818.72030884 -355.13292847 818.72030884 -354.59106445 820.52319336 C-334.722606 885.90832396 -302.23486301 949.42498783 -247.2890625 992.203125 C-246.18520444 993.10527136 -245.08378363 994.01040535 -243.984375 994.91796875 C-220.42528881 1014.27607206 -194.52915553 1029.62352229 -167.2890625 1043.203125 C-166.42974121 1043.6372168 -165.57041992 1044.07130859 -164.68505859 1044.51855469 C-127.493379 1063.11796855 -85.25531303 1072.06594176 -44.33972168 1077.90887451 C-42.44322136 1078.18100464 -40.54819345 1078.46334354 -38.65332031 1078.74658203 C-0.52847783 1084.22954638 41.64232143 1083.93699166 79.7109375 1078.203125 C81.15055081 1077.99168166 82.59016683 1077.78025681 84.02978516 1077.56884766 C146.15298613 1068.3316558 205.58214558 1049.37634794 258.7109375 1015.203125 C259.74605469 1014.54183594 260.78117188 1013.88054687 261.84765625 1013.19921875 C280.72005216 1000.8665071 298.51983801 987.10567952 315.00390625 971.7265625 C317.62392678 969.28423456 320.28438605 966.89568441 322.9609375 964.515625 C329.33177469 958.7869682 335.29774357 952.81335765 340.87890625 946.3125 C342.86405337 944.02682954 344.9113358 941.80611122 346.9609375 939.578125 C366.95372108 917.38274662 382.99192065 892.07814797 397.7109375 866.203125 C398.11054687 865.50751465 398.51015625 864.8119043 398.921875 864.09521484 C411.05624461 842.86577027 423.67144369 817.44008787 427.7109375 793.203125 C167.3409375 793.203125 -93.0290625 793.203125 -361.2890625 793.203125 Z M943.7109375 793.203125 C944.76009845 800.54725162 946.8245349 806.51410317 949.4609375 813.390625 C949.70192169 814.02195343 949.94290588 814.65328186 950.19119263 815.30374146 C966.13042657 856.9042103 988.0953104 895.97443258 1016.7109375 930.203125 C1017.33935547 930.95674316 1017.33935547 930.95674316 1017.98046875 931.72558594 C1031.15385565 947.46871098 1045.07371818 962.86864688 1060.7109375 976.203125 C1061.67 977.05132813 1062.6290625 977.89953125 1063.6171875 978.7734375 C1083.31968243 996.11376432 1104.99573501 1011.09376791 1127.7109375 1024.203125 C1128.69852051 1024.77812744 1128.69852051 1024.77812744 1129.70605469 1025.36474609 C1191.1094005 1060.95772393 1265.08900192 1081.132493 1336.11328125 1081.40625 C1337.34156143 1081.41330963 1338.56984161 1081.42036926 1339.83534241 1081.42764282 C1343.77305895 1081.44514372 1347.71069016 1081.45233468 1351.6484375 1081.453125 C1352.32038147 1081.45341957 1352.99232544 1081.45371414 1353.68463135 1081.45401764 C1373.85696893 1081.45544576 1393.71753314 1081.17828586 1413.7109375 1078.203125 C1415.09673526 1078.0070534 1416.48264557 1077.81177613 1417.86865234 1077.6171875 C1459.19926323 1071.74455691 1501.10279849 1061.70655387 1538.7109375 1043.203125 C1540.36029443 1042.41586449 1542.01004391 1041.62942593 1543.66015625 1040.84375 C1560.08034715 1032.92667372 1575.74726969 1023.61173691 1590.7109375 1013.203125 C1591.79117188 1012.45933594 1592.87140625 1011.71554687 1593.984375 1010.94921875 C1602.57851276 1004.96623604 1610.73580113 998.50462943 1618.78222656 991.80712891 C1620.01510659 990.7818097 1621.25114141 989.76026447 1622.49121094 988.74365234 C1636.83116642 976.98456164 1650.45629262 963.9748464 1661.7109375 949.203125 C1662.70955619 947.9429146 1663.70967761 946.68389419 1664.7109375 945.42578125 C1678.288456 928.21852865 1688.93268003 909.78417321 1698.7109375 890.203125 C1699.1140918 889.40471191 1699.51724609 888.60629883 1699.93261719 887.78369141 C1722.91201341 842.36707253 1722.91201341 842.36707253 1732.7109375 793.203125 C1472.3409375 793.203125 1211.9709375 793.203125 943.7109375 793.203125 Z " fill="#2E8D45" transform="translate(594.2890625,-0.203125)"/>
</svg>
