<?xml version="1.0" encoding="UTF-8"?>
<svg version="1.1" xmlns="http://www.w3.org/2000/svg" width="225" height="225">
<path d="M0 0 C74.25 0 148.5 0 225 0 C225 74.25 225 148.5 225 225 C150.75 225 76.5 225 0 225 C0 150.75 0 76.5 0 0 Z " fill="#14BF96" transform="translate(0,0)"/>
<path d="M0 0 C17.71174865 -1.069615 34.93234128 5.79206224 48.35668945 17.25561523 C62.82643521 30.41403356 73.60985139 49.31514535 75.16308594 69.07470703 C75.31650318 73.05882034 75.22382777 77.02083972 75 81 C77.97 81 80.94 81 84 81 C83.95359375 80.175 83.9071875 79.35 83.859375 78.5 C83.16800976 56.37631231 92.27452774 36.5896809 107.30078125 20.54296875 C120.8853069 7.49204149 138.86836882 -0.39930442 157.69140625 -0.0703125 C158.83416016 -0.03550781 158.83416016 -0.03550781 160 0 C160.49071525 24.78111994 155.69286879 45.15494327 138.234375 63.7265625 C137.49703125 64.47679687 136.7596875 65.22703125 136 66 C135.07960937 66.93972656 135.07960937 66.93972656 134.140625 67.8984375 C117.93990984 83.19911293 96.29608119 88.72423792 74.61328125 88.3046875 C56.33601619 87.55488276 39.47629398 80.36509079 26 68 C24.86691406 67.00419922 24.86691406 67.00419922 23.7109375 65.98828125 C10.67052164 53.86652012 0.73266212 35.40675263 -0.12011719 17.47412109 C-0.24666838 11.64550489 -0.15686271 5.82715937 0 0 Z " fill="#FDFEFE" transform="translate(33,91)"/>
<path d="M0 0 C34.98 0 69.96 0 106 0 C106 74.25 106 148.5 106 225 C70.36 225 34.72 225 -2 225 C0.3068137 223.84659315 2.61817258 222.70199648 4.94140625 221.58203125 C17.39146699 215.52886566 29.42959161 208.73402684 41.49853516 201.96240234 C44.89470897 200.05747866 48.29653749 198.162809 51.69921875 196.26953125 C56.8760285 193.38725484 62.04290762 190.48793172 67.20263672 187.57519531 C69.01143173 186.55666281 70.82279482 185.54267172 72.63720703 184.53417969 C74.99477029 183.22303634 77.34217077 181.89536896 79.6875 180.5625 C80.68450928 180.01565552 80.68450928 180.01565552 81.70166016 179.45776367 C89.09538137 175.19793915 93.37124889 169.66019747 96.17216492 161.61360168 C98.02316621 153.53375399 97.56966965 145.1453538 97.53125 136.8984375 C97.53394922 134.85063493 97.53783521 132.80283362 97.54284668 130.7550354 C97.54871881 126.48011984 97.54025094 122.20554033 97.52148438 117.93066406 C97.49866738 112.46894858 97.51185012 107.00801831 97.53577423 101.54633141 C97.55026939 97.32366074 97.54560966 93.10117447 97.53526306 88.87849808 C97.53260756 86.86518891 97.53582382 84.85186263 97.54518127 82.83857346 C97.5554116 80.02002712 97.539757 77.20273122 97.51757812 74.38427734 C97.52567505 73.56429764 97.53377197 72.74431793 97.54211426 71.89949036 C97.41765672 63.30397497 94.00795347 56.15903309 88.18261719 49.90722656 C83.81962291 46.0947309 78.73079975 43.55432782 73.625 40.875 C72.42173763 40.22775801 71.2194423 39.57871539 70.01806641 38.92797852 C67.55251319 37.59388789 65.08333644 36.26691214 62.61132812 34.94482422 C57.15677808 32.01853772 51.76830033 28.97472089 46.375 25.9375 C44.33087353 24.79271094 42.28660227 23.64818038 40.2421875 22.50390625 C35.88778838 20.06292926 31.54007965 17.61042081 27.1953125 15.15234375 C26.07463379 14.52013916 24.95395508 13.88793457 23.79931641 13.23657227 C21.66688287 12.03338996 19.53621974 10.82706209 17.40771484 9.61694336 C11.7246168 6.41471259 6.02447457 3.50643714 0 1 C0 0.67 0 0.34 0 0 Z " fill="#FEFEFE" transform="translate(119,0)"/>
<path d="M0 0 C35.64 0 71.28 0 108 0 C108 0.33 108 0.66 108 1 C106.74445313 1.37382812 105.48890625 1.74765625 104.1953125 2.1328125 C98.39335326 4.07283555 93.20941585 6.91128954 87.875 9.875 C86.82803955 10.44943848 85.7810791 11.02387695 84.70239258 11.61572266 C76.73055535 16.003374 68.79967802 20.4646613 60.8918457 24.96655273 C55.56182198 27.99944343 50.21296496 30.99295402 44.8359375 33.94140625 C43.61366151 34.61339555 42.39141206 35.28543314 41.16918945 35.95751953 C38.8273714 37.24495149 36.48182395 38.5245814 34.13354492 39.80029297 C22.69891484 45.92604534 22.69891484 45.92604534 13.625 55 C12.93277344 55.928125 12.93277344 55.928125 12.2265625 56.875 C8.98051329 62.49872857 8.70655913 67.74916605 8.7253418 74.05957031 C8.72023087 74.95146561 8.71511993 75.8433609 8.70985413 76.76228333 C8.69599294 79.70096615 8.69691273 82.63941343 8.69921875 85.578125 C8.69532904 87.63067715 8.6909938 89.6832285 8.68623352 91.73577881 C8.67877811 96.03628142 8.67905704 100.33670194 8.68432617 104.63720703 C8.69011042 110.1290949 8.67321165 115.62064437 8.6499815 121.11247635 C8.63519547 125.35231468 8.63437924 129.59207252 8.63749123 133.83193207 C8.63698015 135.8555849 8.63178281 137.8792425 8.62167931 139.90287018 C8.6092419 142.74308239 8.61615081 145.58264846 8.62768555 148.42285156 C8.62004181 149.24709122 8.61239807 150.07133087 8.60452271 150.92054749 C8.68758602 160.2471921 10.95710105 168.09319258 17.48388672 174.86523438 C22.35035689 178.99413163 27.93217144 181.82602299 33.5625 184.75 C34.86290627 185.44319042 36.1622085 186.13845562 37.46044922 186.83569336 C40.07428573 188.23850492 42.69177046 189.63409514 45.31201172 191.02490234 C50.47091406 193.7744629 55.54860926 196.66415681 60.625 199.5625 C68.63548313 204.10661301 76.65694728 208.6307102 84.69891357 213.11886597 C86.45245654 214.09844098 88.20404006 215.081521 89.95556641 216.06469727 C95.21547613 218.99530835 100.39407703 221.79307055 106 224 C106 224.33 106 224.66 106 225 C71.02 225 36.04 225 0 225 C0 150.75 0 76.5 0 0 Z " fill="#FEFEFE" transform="translate(0,0)"/>
<path d="M0 0 C6.6036783 3.73160234 10.88970297 8.65627393 13.21484375 15.91015625 C14.94089869 23.31364809 13.30566821 29.38423959 9.6875 35.9375 C5.7695269 41.23420288 1.20067801 44.67578489 -5.3125 45.9375 C-14.23735663 46.85187925 -20.50733919 45.38540664 -27.5625 39.6875 C-33.4260451 34.19894907 -34.47355975 29.85760461 -34.75 22 C-34.57185507 15.00038882 -33.5047302 10.39048167 -28.734375 5.23046875 C-20.48501943 -2.40575904 -10.38266729 -4.73787378 0 0 Z " fill="#FCFEFD" transform="translate(123.3125,48.0625)"/>
</svg>
