<?xml version="1.0" encoding="UTF-8"?>
<svg version="1.1" xmlns="http://www.w3.org/2000/svg" width="512" height="512">
<path d="M0 0 C0.99702942 0.00304138 1.99405884 0.00608276 3.02130127 0.00921631 C19.42874707 0.08286863 35.27265325 1.05530742 51.375 4.4375 C52.39029785 4.64648926 53.4055957 4.85547852 54.45166016 5.07080078 C91.16744475 12.8721015 127.124672 28.70525535 156.375 52.4375 C157.27734375 53.15035156 158.1796875 53.86320312 159.109375 54.59765625 C174.54186608 66.95672749 189.27942777 80.76721404 201.375 96.4375 C202.08914063 97.34628906 202.80328125 98.25507812 203.5390625 99.19140625 C227.19439964 129.90990943 243.53922848 164.98800776 251.75 202.875 C252.10795654 204.52423462 252.10795654 204.52423462 252.47314453 206.20678711 C255.86588398 222.73259283 256.78423787 238.91983739 256.75 255.75 C256.74918427 257.26427582 256.74918427 257.26427582 256.74835205 258.80914307 C256.70757723 275.32229403 255.78788789 291.23017849 252.375 307.4375 C252.05354004 308.984375 252.05354004 308.984375 251.72558594 310.5625 C241.56386882 357.89509793 217.87023694 400.69049463 184.375 435.4375 C183.84084473 435.99356934 183.30668945 436.54963867 182.75634766 437.12255859 C175.69847031 444.43212845 168.46084352 451.25957844 160.375 457.4375 C159.70758789 457.95425293 159.04017578 458.47100586 158.35253906 459.00341797 C142.11891416 471.51966418 124.91091298 481.71851654 106.375 490.4375 C105.29863281 490.94667969 104.22226562 491.45585937 103.11328125 491.98046875 C85.02130851 500.12076529 65.83827514 505.74994723 46.375 509.4375 C45.56562988 509.60121094 44.75625977 509.76492188 43.92236328 509.93359375 C13.82717364 515.8153106 -20.67289964 514.68564983 -50.625 508.4375 C-51.51606445 508.25558105 -52.40712891 508.07366211 -53.32519531 507.88623047 C-59.1699774 506.65267499 -64.90071342 505.14115672 -70.625 503.4375 C-71.54667969 503.16454102 -72.46835938 502.89158203 -73.41796875 502.61035156 C-108.22636742 492.09579856 -140.47172931 474.71087834 -167.625 450.4375 C-168.45773438 449.71433594 -169.29046875 448.99117188 -170.1484375 448.24609375 C-181.21569887 438.52194662 -191.63790353 428.12582206 -200.625 416.4375 C-201.33785156 415.53 -202.05070312 414.6225 -202.78515625 413.6875 C-226.44622894 382.97400882 -242.78959487 347.88530164 -251 310 C-251.2386377 308.90051025 -251.47727539 307.80102051 -251.72314453 306.66821289 C-255.14135951 290.01831758 -256.00205986 273.76705979 -255.9375 256.8125 C-255.93534485 255.79459381 -255.9331897 254.77668762 -255.93096924 253.72793579 C-255.88129854 239.11886477 -255.63040191 224.78674147 -252.625 210.4375 C-252.42632324 209.46264648 -252.22764648 208.48779297 -252.02294922 207.48339844 C-245.55515128 176.56393293 -234.59866501 147.15301561 -217.625 120.4375 C-216.94824219 119.365 -216.27148438 118.2925 -215.57421875 117.1875 C-200.54301673 94.05330531 -181.5353163 72.24407793 -159.625 55.4375 C-158.69429688 54.67824219 -157.76359375 53.91898438 -156.8046875 53.13671875 C-127.77741679 29.8629352 -92.23833067 13.64562535 -56 5.625 C-54.77071777 5.35103394 -54.77071777 5.35103394 -53.51660156 5.0715332 C-35.75362958 1.39778136 -18.11333847 -0.11833312 0 0 Z M-126.625 72.4375 C-127.58019531 73.12070313 -128.53539062 73.80390625 -129.51953125 74.5078125 C-176.50894498 108.87228545 -207.37214554 157.67368372 -219.625 214.4375 C-219.80579102 215.24719238 -219.98658203 216.05688477 -220.17285156 216.89111328 C-231.54322103 270.13744585 -217.75200234 329.34032721 -189.46484375 374.99609375 C-187.586656 377.86751796 -185.64245115 380.6624919 -183.625 383.4375 C-182.94179687 384.39269531 -182.25859375 385.34789062 -181.5546875 386.33203125 C-145.93120841 435.04298922 -93.31136549 468.15326194 -33.58520508 477.8671875 C21.80550022 486.06934312 81.81206192 473.84121323 127.375 440.4375 C128.32761719 439.75558594 129.28023438 439.07367188 130.26171875 438.37109375 C179.61681833 402.306387 212.40472912 349.37261198 221.93701172 288.87036133 C223.41856807 278.27809251 223.77643402 267.81213499 223.75 257.125 C223.74912384 256.25310028 223.74824768 255.38120056 223.74734497 254.48287964 C223.60164963 210.26862798 210.74408686 165.40515018 184.375 129.4375 C183.69308594 128.48488281 183.01117188 127.53226562 182.30859375 126.55078125 C169.78435644 109.41117204 155.33207542 93.28963067 138.375 80.4375 C137.7361084 79.94926758 137.0972168 79.46103516 136.43896484 78.95800781 C125.60029408 70.72452206 114.48690891 63.64058902 102.375 57.4375 C101.6320166 57.05110352 100.8890332 56.66470703 100.12353516 56.26660156 C29.44554388 19.83590656 -61.95961755 25.42529495 -126.625 72.4375 Z " fill="#323232" transform="translate(255.625,-0.4375)"/>
<path d="M0 0 C10.13160294 6.09338398 16.67925676 14.65986853 20 26 C22.36149027 39.07308667 19.96302191 49.74725924 13 61 C7.19554802 68.72199415 -1.55143756 73.96497636 -11 76 C-25.33037628 77.00312634 -36.63641211 75.50172655 -48.03515625 65.9375 C-56.25834324 57.828751 -60.34926324 47.4694524 -60.5 36 C-60.34926324 24.5305476 -56.25834324 14.171249 -48.03515625 6.0625 C-34.69507793 -5.13062177 -15.71241353 -8.51750363 0 0 Z " fill="#323232" transform="translate(156,220)"/>
<path d="M0 0 C8.80288754 6.34043826 15.4186507 14.72648904 17.58203125 25.4921875 C18.92007691 37.90936834 17.85729499 48.88109459 10.39453125 59.2421875 C3.58210875 67.3274193 -4.72289951 73.55522767 -15.48876953 74.71533203 C-28.40007937 75.61089799 -39.16843729 74.04490094 -49.3515625 65.46484375 C-57.86959925 57.33325857 -62.42046403 48.68416257 -62.88867188 36.85693359 C-63.04371176 24.34263074 -60.22647828 14.71931927 -51.41796875 5.4921875 C-37.63784493 -7.66275112 -16.31305228 -10.17259803 0 0 Z " fill="#323232" transform="translate(278.41796875,221.5078125)"/>
<path d="M0 0 C8.66027896 6.16129299 14.19455796 15.06212951 16.48046875 25.42578125 C17.73169265 38.07846371 15.74703478 48.86087607 8.2265625 59.36328125 C2.01009371 66.70622425 -6.98582361 72.46366183 -16.63769531 73.69628906 C-29.59765518 74.69664819 -40.35902848 72.84982905 -50.5234375 64.26171875 C-58.76149279 56.68464245 -63.31086976 48.10246665 -64.45703125 36.80078125 C-64.88890336 25.45064231 -61.85990749 15.46358758 -54.921875 6.3203125 C-40.30174901 -9.33670186 -17.69533781 -11.0561568 0 0 Z " fill="#323232" transform="translate(399.51953125,222.57421875)"/>
</svg>
