<svg width="40" height="40" viewBox="0 0 40 40" fill="none" xmlns="http://www.w3.org/2000/svg">
  <rect width="40" height="40" rx="8" fill="#6366F1"/>
  <path d="M20 8C13.373 8 8 13.373 8 20s5.373 12 12 12 12-5.373 12-12S26.627 8 20 8zm0 22c-5.523 0-10-4.477-10-10s4.477-10 10-10 10 4.477 10 10-4.477 10-10 10z" fill="white"/>
  <path d="M16 16h8v2h-8v-2zm0 4h8v2h-8v-2zm0 4h6v2h-6v-2z" fill="white"/>
  <circle cx="20" cy="20" r="3" fill="#6366F1"/>
  <text x="20" y="24" text-anchor="middle" fill="white" font-size="8" font-weight="bold">?</text>
</svg>

